<?xml version="1.0" encoding="UTF-8"?>
<svg version="1.1" xmlns="http://www.w3.org/2000/svg" width="685" height="364">
<path d="M0 0 C0.72509766 -0.02900391 1.45019531 -0.05800781 2.19726562 -0.08789062 C5.78156795 -0.13052185 7.76028545 -0.01796101 10.63671875 2.20703125 C14.51755682 7.47597765 12.96119092 13.07568703 12.1875 19.3125 C11.25326522 24.23186154 10.08140754 29.07857662 8.875 33.9375 C8.39680954 35.91543753 7.92258717 37.89429903 7.44865417 39.8732605 C6.98359545 41.81439479 6.51574477 43.75485949 6.04785156 45.6953125 C4.88225416 50.59584915 3.79223609 55.50940211 2.75 60.4375 C2.58653076 61.19369629 2.42306152 61.94989258 2.25463867 62.72900391 C1.56240536 66.03244152 1.1875 68.91572378 1.1875 72.3125 C0.5275 72.3125 -0.1325 72.3125 -0.8125 72.3125 C-0.83828125 72.90933594 -0.8640625 73.50617188 -0.890625 74.12109375 C-1.26663832 79.87238835 -2.18562303 85.34727277 -3.5625 90.9375 C-5.24177346 97.76184673 -6.71082273 104.603253 -8.0625 111.5 C-10.03063534 121.51504867 -12.10875471 131.5031548 -14.22946167 141.48669434 C-17.20531272 155.49763685 -20.05208231 169.52245753 -22.73193359 183.59301758 C-24.35204374 192.05784358 -26.12131202 200.47767154 -27.98901367 208.89086914 C-30.03390814 218.16876777 -31.80122332 227.4951595 -33.57421875 236.828125 C-34.72328242 242.87168046 -35.91381067 248.90611802 -37.125 254.9375 C-37.42277344 256.42141235 -37.42277344 256.42141235 -37.7265625 257.93530273 C-38.16591008 260.12277526 -38.60554354 262.31019038 -39.04541016 264.49755859 C-40.6373032 272.41446526 -42.22626409 280.33195793 -43.8125 288.25 C-43.98638245 289.11789154 -44.16026489 289.98578308 -44.3394165 290.87997437 C-46.43167623 301.32946128 -48.49867727 311.78266774 -50.5 322.25 C-50.69392334 323.25562988 -50.88784668 324.26125977 -51.08764648 325.29736328 C-52.11284065 330.61829901 -53.11179293 335.9429066 -54.0859375 341.2734375 C-54.5152654 343.55735929 -54.94494206 345.84121556 -55.375 348.125 C-55.5608667 349.1761499 -55.7467334 350.2272998 -55.93823242 351.31030273 C-57.73973343 360.73455554 -57.73973343 360.73455554 -61.8125 364.3125 C-66.61268159 365.00930055 -68.71852138 364.89166515 -73 362.625 C-77.73012623 358.7357851 -81.64436373 354.41502219 -85.48046875 349.66796875 C-85.92003906 349.22066406 -86.35960937 348.77335937 -86.8125 348.3125 C-87.4725 348.3125 -88.1325 348.3125 -88.8125 348.3125 C-90.50183922 346.6688186 -92.16509924 344.9982124 -93.8125 343.3125 C-94.67875 342.6525 -95.545 341.9925 -96.4375 341.3125 C-99.05413726 339.10901599 -100.30645258 337.37634811 -101.8125 334.3125 C-102.44423323 324.2941135 -99.70880194 313.5145809 -98.0625 303.625 C-97.79026089 301.96720744 -97.5180444 300.30941117 -97.24584961 298.65161133 C-95.57666342 288.55533651 -93.76277106 278.49670248 -91.77172852 268.45849609 C-90.02484646 259.59750016 -88.47326452 250.70880196 -86.94088745 241.80886841 C-83.51069339 221.90035163 -79.71495613 202.07695719 -75.79003906 182.26074219 C-73.94550546 172.9384191 -72.13981067 163.60845065 -70.33398438 154.27856445 C-70.05346007 152.83022642 -69.77286161 151.38190276 -69.4921875 149.93359375 C-69.35484192 149.22481583 -69.21749634 148.5160379 -69.07598877 147.78578186 C-68.21702602 143.364023 -67.34257527 138.94559354 -66.45718384 134.52905273 C-65.87576291 131.62577816 -65.29981811 128.72143024 -64.72442627 125.81695557 C-64.45242258 124.45210078 -64.177695 123.08778567 -63.90008545 121.72406006 C-63.52031682 119.85778015 -63.15052086 117.98947913 -62.78125 116.12109375 C-62.56919922 115.06720459 -62.35714844 114.01331543 -62.13867188 112.92749023 C-61.60837611 110.20617657 -61.60837611 110.20617657 -62.8125 107.3125 C-64.96861265 111.84068551 -67.11872427 116.37165986 -69.26391602 120.9050293 C-69.99056415 122.43863846 -70.71869412 123.97154661 -71.44848633 125.50366211 C-76.30364273 135.69982563 -80.82933947 145.9733516 -85.05166626 156.44715881 C-86.79811942 160.72894974 -88.61088979 164.98141375 -90.609375 169.15234375 C-90.92519531 169.81540527 -91.24101563 170.4784668 -91.56640625 171.16162109 C-91.89511719 171.85078613 -92.22382812 172.53995117 -92.5625 173.25 C-95.3765621 179.20089817 -98.14204729 185.17066223 -100.8125 191.1875 C-101.11510742 191.859021 -101.41771484 192.53054199 -101.72949219 193.22241211 C-102.99501646 196.10099766 -103.8125 198.13084156 -103.8125 201.3125 C-104.4725 201.3125 -105.1325 201.3125 -105.8125 201.3125 C-105.96162842 201.88210449 -106.11075684 202.45170898 -106.2644043 203.03857422 C-108.35087037 210.51414786 -111.39431277 217.3943733 -114.625 224.4375 C-118.42311955 232.85201253 -122.05663602 241.21991029 -125.1953125 249.90234375 C-127.43400836 256.08192144 -129.85085494 262.19389515 -132.25 268.3125 C-132.72767822 269.53243652 -133.20535645 270.75237305 -133.69750977 272.00927734 C-136.26776857 278.53035585 -138.92355289 284.98894823 -141.8125 291.375 C-144.18234368 296.6350349 -145.95634045 301.73878822 -147.20703125 307.37109375 C-147.40683594 308.01175781 -147.60664063 308.65242188 -147.8125 309.3125 C-148.4725 309.6425 -149.1325 309.9725 -149.8125 310.3125 C-149.4825 311.3025 -149.1525 312.2925 -148.8125 313.3125 C-149.4725 313.3125 -150.1325 313.3125 -150.8125 313.3125 C-150.99039063 314.37597656 -150.99039063 314.37597656 -151.171875 315.4609375 C-151.85040849 318.481239 -152.82760051 321.1003575 -154.0625 323.9375 C-154.45953125 324.87851562 -154.8565625 325.81953125 -155.265625 326.7890625 C-157.08497567 329.75699314 -158.68213022 330.85067638 -161.8125 332.3125 C-166.2515841 332.2015229 -168.69189945 330.35698834 -171.8125 327.3125 C-173.3338472 325.12159052 -174.76239555 322.88241787 -176.1953125 320.6328125 C-178.66054815 317.09573526 -181.66749575 314.23865086 -184.8125 311.3125 C-194.79640057 301.32859943 -196.9181897 289.7575669 -197.12109375 276.171875 C-197.14385124 274.66296188 -197.14385124 274.66296188 -197.16706848 273.12356567 C-197.57423807 239.47621799 -194.97516722 206.50338423 -191.59082031 173.07128906 C-190.55836938 162.85151194 -189.61928895 152.62367177 -188.69519043 142.39361572 C-188.44544318 139.64976774 -188.18900183 136.90662518 -187.93066406 134.16357422 C-187.77921758 132.53093183 -187.62784531 130.89828256 -187.4765625 129.265625 C-187.40811127 128.55223969 -187.33966003 127.83885437 -187.26913452 127.10385132 C-186.87824816 122.82619404 -186.75314644 118.60690428 -186.8125 114.3125 C-187.09746338 115.25041382 -187.09746338 115.25041382 -187.38818359 116.20727539 C-191.42384314 129.46507563 -195.54595902 142.68992311 -199.8125 155.875 C-200.12568176 156.84368515 -200.12568176 156.84368515 -200.44519043 157.8319397 C-202.3038544 163.58017307 -204.16628193 169.32717163 -206.03613281 175.07177734 C-207.1735445 178.56752213 -208.30587854 182.06487743 -209.4375 185.5625 C-209.78039062 186.60994385 -210.12328125 187.6573877 -210.4765625 188.73657227 C-210.940625 190.17407837 -210.940625 190.17407837 -211.4140625 191.640625 C-211.68557129 192.4749707 -211.95708008 193.30931641 -212.23681641 194.16894531 C-212.94218691 196.42546966 -212.94218691 196.42546966 -212.8125 199.3125 C-213.4725 199.3125 -214.1325 199.3125 -214.8125 199.3125 C-215.039375 200.611875 -215.26625 201.91125 -215.5 203.25 C-216.6558606 209.12210933 -218.37093683 214.79737945 -220.13549805 220.50952148 C-221.061824 223.54663875 -221.8125 226.11753078 -221.8125 229.3125 C-222.4725 229.3125 -223.1325 229.3125 -223.8125 229.3125 C-224.039375 230.45332031 -224.26625 231.59414062 -224.5 232.76953125 C-226.17335637 240.29521582 -228.55402253 247.63424719 -230.8125 255 C-231.26852022 256.4979583 -231.72425153 257.99600459 -232.1796875 259.49414062 C-232.61953301 260.93757884 -233.05962851 262.38094091 -233.5 263.82421875 C-233.70214111 264.48685226 -233.90428223 265.14948578 -234.11254883 265.8321991 C-235.01449145 268.77273192 -235.94423756 271.6935939 -236.94921875 274.60083008 C-237.82094731 277.33903402 -237.98028321 279.46018539 -237.8125 282.3125 C-238.4725 282.3125 -239.1325 282.3125 -239.8125 282.3125 C-240.05355469 283.49714844 -240.29460937 284.68179687 -240.54296875 285.90234375 C-242.04673626 292.66071591 -244.11111511 299.25499576 -246.125 305.875 C-246.53219955 307.22001099 -246.93926264 308.56506331 -247.34619141 309.91015625 C-248.1410807 312.53472532 -248.93837632 315.15854479 -249.73779297 317.78173828 C-250.63414958 320.72656094 -251.52375481 323.67326634 -252.41015625 326.62109375 C-252.83529659 328.01842433 -253.26100374 329.41558269 -253.6875 330.8125 C-254.03554688 331.9571875 -254.38359375 333.101875 -254.7421875 334.28125 C-257.21677321 341.28956573 -260.03012327 345.92131164 -266.8125 349.3125 C-270.97857379 349.59023825 -274.11140571 349.32166547 -277.8125 347.3125 C-281.89857612 335.05427164 -277.23989472 322.08607776 -273.69775391 310.29980469 C-272.50489276 306.27447403 -271.40193292 302.22640073 -270.29321289 298.17724609 C-267.37296591 287.54771371 -264.24476776 276.9923689 -260.91650391 266.48339844 C-258.95957246 260.24665688 -257.15653348 253.98292595 -255.41760254 247.68223572 C-251.99537947 235.28999175 -248.27719453 223.02861063 -244.30432129 210.80255127 C-242.55201322 205.40943228 -240.81551841 200.01121989 -239.078125 194.61328125 C-238.72272644 193.51010559 -238.36732788 192.40692993 -238.00115967 191.27032471 C-234.59879117 180.68945588 -231.29511262 170.07874454 -228.00180054 159.46353149 C-219.611031 132.43199912 -210.87278765 105.54566926 -201.25317383 78.92456055 C-198.79194108 72.10657102 -196.44040675 65.26441732 -194.1875 58.375 C-191.81220411 51.15230465 -189.29388431 43.99471065 -186.625 36.875 C-186.14329346 35.56897827 -186.14329346 35.56897827 -185.65185547 34.23657227 C-182.42593729 25.75999296 -179.01115772 20.46701735 -170.8125 16.3125 C-167.79599498 14.99930019 -164.73392873 13.88588116 -161.625 12.8125 C-159.94358318 12.21735149 -158.26259427 11.62099268 -156.58203125 11.0234375 C-155.76814941 10.7356543 -154.95426758 10.44787109 -154.11572266 10.15136719 C-152.07862592 9.40942693 -150.07521639 8.6224904 -148.07421875 7.7890625 C-141.42093628 5.03213348 -135.11277239 2.84547921 -127.8125 3.3125 C-125.18348702 4.46926571 -123.7866513 5.3383487 -121.8125 7.3125 C-118.03276501 46.24156005 -127.37681992 86.90579229 -132.96362305 125.29666138 C-138.18698936 161.19613726 -143.02229013 197.32534623 -144.47167969 233.60766602 C-144.70869769 239.10489538 -144.70869769 239.10489538 -145.8125 241.3125 C-145.1525 241.3125 -144.4925 241.3125 -143.8125 241.3125 C-143.8125 236.0325 -143.8125 230.7525 -143.8125 225.3125 C-143.4825 225.3125 -143.1525 225.3125 -142.8125 225.3125 C-142.4825 227.9525 -142.1525 230.5925 -141.8125 233.3125 C-141.46058594 232.42691406 -141.10867188 231.54132813 -140.74609375 230.62890625 C-140.247533 229.37754951 -139.74882266 228.12625236 -139.25 226.875 C-138.98622559 226.21209961 -138.72245117 225.54919922 -138.45068359 224.86621094 C-136.95023997 221.10941505 -135.42312242 217.36601076 -133.85546875 213.63671875 C-133.37605835 212.4919104 -133.37605835 212.4919104 -132.88696289 211.32397461 C-132.26167628 209.83463804 -131.63206077 208.34711038 -130.99780273 206.86157227 C-129.73853746 203.85575617 -128.8125 201.60599087 -128.8125 198.3125 C-128.1525 198.3125 -127.4925 198.3125 -126.8125 198.3125 C-126.68875 197.79945313 -126.565 197.28640625 -126.4375 196.7578125 C-124.41376794 189.24470723 -121.25640885 182.35550455 -118.0546875 175.29296875 C-115.3781286 169.38506903 -112.84156768 163.41917815 -110.31005859 157.44799805 C-103.79497673 142.14358528 -96.87168377 127.02623696 -89.875 111.9375 C-84.74304115 100.8561752 -79.63625559 89.76783493 -74.68017578 78.60644531 C-72.03525742 72.69584879 -69.17540058 66.90396051 -66.19677734 61.15454102 C-64.40295965 57.90302034 -64.40295965 57.90302034 -63.8125 54.3125 C-63.1525 54.3125 -62.4925 54.3125 -61.8125 54.3125 C-61.8125 52.9925 -61.8125 51.6725 -61.8125 50.3125 C-61.1525 50.3125 -60.4925 50.3125 -59.8125 50.3125 C-59.55855469 49.48105469 -59.30460938 48.64960937 -59.04296875 47.79296875 C-54.552756 35.09208125 -47.24965724 17.64804248 -34.8125 11.3125 C-28.85797634 8.98797119 -22.79896798 7.17000071 -16.65625 5.40625 C-15.7590625 5.1484375 -14.861875 4.890625 -13.9375 4.625 C-13.15632813 4.41488281 -12.37515625 4.20476563 -11.5703125 3.98828125 C-9.60501098 3.45950473 -9.60501098 3.45950473 -8.8125 1.3125 C-6.7707082 -0.7292918 -2.79114238 0.03662917 0 0 Z M-60.8125 100.3125 C-61.1425 101.6325 -61.4725 102.9525 -61.8125 104.3125 C-60.8225 104.8075 -60.8225 104.8075 -59.8125 105.3125 C-59.8125 103.6625 -59.8125 102.0125 -59.8125 100.3125 C-60.1425 100.3125 -60.4725 100.3125 -60.8125 100.3125 Z " fill="#060606" transform="translate(608.8125,-0.3125)"/>
<path d="M0 0 C1.13824219 -0.01417969 2.27648437 -0.02835937 3.44921875 -0.04296875 C6.3125 0.1875 6.3125 0.1875 8.3125 2.1875 C9.4414581 9.5126002 7.77145147 15.83748917 5.1875 22.65625 C4.14914511 25.21369269 4.14914511 25.21369269 4.3125 28.1875 C3.6525 28.1875 2.9925 28.1875 2.3125 28.1875 C2.19567871 29.05560303 2.07885742 29.92370605 1.95849609 30.81811523 C1.31196495 34.1902907 0.32506752 36.94648518 -1.0234375 40.09765625 C-1.50482178 41.2369458 -1.98620605 42.37623535 -2.48217773 43.55004883 C-2.86779373 44.45226669 -2.86779373 44.45226669 -3.26119995 45.37271118 C-4.6479722 48.62164652 -6.01099857 51.8804474 -7.37109375 55.140625 C-7.65104691 55.81164749 -7.93100006 56.48266998 -8.21943665 57.17402649 C-11.00652512 63.89238405 -13.58049173 70.68640367 -16.125 77.5 C-20.65721351 89.61812882 -25.45076202 101.61237769 -30.36108398 113.58129883 C-32.89216792 119.75276445 -35.40005431 125.92085191 -37.6875 132.1875 C-35.7075 132.1875 -33.7275 132.1875 -31.6875 132.1875 C-31.6875 132.5175 -31.6875 132.8475 -31.6875 133.1875 C-30.38554687 133.15269531 -29.08359375 133.11789063 -27.7421875 133.08203125 C-26.01563796 133.05388099 -24.28907439 133.02658216 -22.5625 133 C-21.7065625 132.97486328 -20.850625 132.94972656 -19.96875 132.92382812 C-14.76062755 132.8637344 -11.19822555 133.27298697 -6.6875 136.1875 C-4.54865902 138.79130641 -4.68634789 140.15639315 -4.8125 143.5625 C-6.64995526 151.17481463 -11.31131563 154.73736494 -17.34765625 159.2578125 C-19.58106584 161.09972292 -21.0430166 162.82679461 -22.6875 165.1875 C-23.59428573 166.25844522 -24.51104341 167.32102551 -25.4375 168.375 C-27.79066453 171.07592283 -29.93696397 173.86742375 -32.0625 176.75 C-38.31205755 184.76958474 -46.04247502 189.07353479 -55.6875 192.1875 C-57.0075 192.1875 -58.3275 192.1875 -59.6875 192.1875 C-60.0175 192.8475 -60.3475 193.5075 -60.6875 194.1875 C-61.3475 195.1775 -62.0075 196.1675 -62.6875 197.1875 C-63.23276438 198.55237994 -63.73426933 199.93514802 -64.203125 201.328125 C-64.48188477 202.14442383 -64.76064453 202.96072266 -65.04785156 203.80175781 C-65.48822754 205.1064502 -65.48822754 205.1064502 -65.9375 206.4375 C-68.92527658 215.14320863 -72.20795046 223.66787568 -75.6875 232.1875 C-77.93177354 237.51691374 -77.93177354 237.51691374 -78.6875 243.1875 C-79.3475 243.1875 -80.0075 243.1875 -80.6875 243.1875 C-80.91179687 244.39277344 -81.13609375 245.59804687 -81.3671875 246.83984375 C-82.82680875 253.39280185 -85.36493229 259.51470738 -87.8125 265.75 C-91.52246653 275.3290296 -95.07304682 284.93654885 -98.3125 294.6875 C-98.64266113 295.67693604 -98.97282227 296.66637207 -99.31298828 297.68579102 C-100.67757129 301.84262738 -101.88911883 305.87986637 -102.6875 310.1875 C-103.3475 310.1875 -104.0075 310.1875 -104.6875 310.1875 C-104.3575 311.1775 -104.0275 312.1675 -103.6875 313.1875 C-104.54296875 315.46923828 -104.54296875 315.46923828 -105.875 318.1328125 C-108.65904998 323.979702 -110.71759598 329.90177525 -112.6875 336.0625 C-120.94249688 361.28189413 -120.94249688 361.28189413 -124.6875 364.1875 C-129.42307363 365.35062335 -129.42307363 365.35062335 -132.6875 364.1875 C-135.54049495 361.56975951 -137.95197787 358.79465625 -140.390625 355.7890625 C-142.5387458 353.3559869 -143.83248161 352.49299986 -146.6875 351.1875 C-147.6775 349.7025 -147.6775 349.7025 -148.6875 348.1875 C-149.6775 347.8575 -150.6675 347.5275 -151.6875 347.1875 C-153.44140625 345.19140625 -153.44140625 345.19140625 -155.25 342.75 C-156.99381954 340.41365683 -158.62498351 338.25001649 -160.6875 336.1875 C-161.50540519 330.31310615 -160.38824845 324.63958778 -158.8125 319 C-158.60343018 318.22188965 -158.39436035 317.4437793 -158.17895508 316.64208984 C-155.5208718 307.08389501 -152.2522545 297.69808763 -148.99072266 288.33129883 C-148.56452637 287.09017334 -148.13833008 285.84904785 -147.69921875 284.5703125 C-147.31209717 283.46059082 -146.92497559 282.35086914 -146.52612305 281.20751953 C-145.73508174 278.35884969 -145.51191994 276.12156212 -145.6875 273.1875 C-145.0275 273.1875 -144.3675 273.1875 -143.6875 273.1875 C-143.44314209 272.11653076 -143.44314209 272.11653076 -143.19384766 271.02392578 C-141.32233729 263.15440941 -138.85173492 255.64947815 -136.0625 248.0625 C-135.1759362 245.61760317 -134.2905497 243.17227915 -133.40625 240.7265625 C-132.95765625 239.4880957 -132.5090625 238.24962891 -132.046875 236.97363281 C-129.82729077 230.81524191 -127.69601246 224.6261504 -125.5625 218.4375 C-125.17239746 217.30683105 -124.78229492 216.17616211 -124.38037109 215.01123047 C-123.48155584 212.40372785 -122.58383547 209.79585588 -121.6875 207.1875 C-122.82993164 207.42839355 -123.97236328 207.66928711 -125.14941406 207.91748047 C-132.81952706 209.53393628 -140.49005036 211.14825092 -148.16369629 212.74786377 C-151.43332067 213.4296135 -154.70251608 214.11340783 -157.97167969 214.79736328 C-159.63686282 215.14523817 -161.30223243 215.4922215 -162.96777344 215.83837891 C-165.43214722 216.35079705 -167.89581558 216.8664952 -170.359375 217.3828125 C-171.09484558 217.53493195 -171.83031616 217.68705139 -172.58807373 217.84378052 C-174.62598428 218.27269841 -176.65689332 218.72536672 -178.6875 219.1875 C-180.60997559 219.61651611 -180.60997559 219.61651611 -182.57128906 220.05419922 C-185.69896785 220.8850065 -185.69896785 220.8850065 -187.10546875 222.96484375 C-187.35941406 223.67769531 -187.61335938 224.39054688 -187.875 225.125 C-188.17736572 225.92808594 -188.47973145 226.73117188 -188.79125977 227.55859375 C-189.08701904 228.42613281 -189.38277832 229.29367188 -189.6875 230.1875 C-190.0187085 231.08597656 -190.34991699 231.98445312 -190.69116211 232.91015625 C-191.37562062 234.76715602 -192.04997895 236.6279087 -192.71435547 238.4921875 C-193.87025167 241.69366619 -195.11967413 244.85117259 -196.3828125 248.01147461 C-199.49541629 255.82190185 -202.31824227 263.72267396 -205.06713867 271.66723633 C-207.27264363 278.0360381 -209.57263266 284.36453681 -211.91967773 290.68237305 C-214.01339177 296.32884539 -216.05474728 301.99262825 -218.07983398 307.6640625 C-223.97892188 324.16624704 -223.97892188 324.16624704 -227 331.875 C-227.42925781 332.97199219 -227.85851562 334.06898438 -228.30078125 335.19921875 C-231.08745782 341.20431052 -234.31888922 345.42947245 -239.6875 349.1875 C-243.37599197 350.39190554 -244.89399774 350.54818285 -248.4375 348.9375 C-250.6875 347.1875 -250.6875 347.1875 -252.6875 344.1875 C-253.23526171 337.8371778 -252.82606281 331.44959547 -251.6875 325.1875 C-251.0275 325.1875 -250.3675 325.1875 -249.6875 325.1875 C-250.1825 323.7025 -250.1825 323.7025 -250.6875 322.1875 C-250.0275 322.1875 -249.3675 322.1875 -248.6875 322.1875 C-248.59726563 321.41792969 -248.50703125 320.64835937 -248.4140625 319.85546875 C-247.43064323 314.89078762 -245.75624852 310.26221354 -244.0625 305.5 C-243.70422119 304.48196289 -243.34594238 303.46392578 -242.97680664 302.41503906 C-239.64049595 292.9711214 -236.18310504 283.57336845 -232.6875 274.1875 C-231.51810889 271.04267084 -230.35133388 267.89689009 -229.1875 264.75 C-228.90084473 263.97503174 -228.61418945 263.20006348 -228.31884766 262.40161133 C-225.83579925 255.65583384 -223.47268234 248.87041299 -221.11694336 242.0793457 C-219.13138574 236.38232708 -217.04184064 230.74432883 -214.6875 225.1875 C-215.6775 224.8575 -216.6675 224.5275 -217.6875 224.1875 C-226.72374445 219.62044504 -233.49680976 213.37426233 -239.625 205.375 C-242.5991494 201.75285157 -246.00417505 200.73327385 -250.33984375 199.22265625 C-253.99608472 197.61050341 -255.52598713 195.50181974 -257.6875 192.1875 C-257.6875 191.5275 -257.6875 190.8675 -257.6875 190.1875 C-258.3475 189.8575 -259.0075 189.5275 -259.6875 189.1875 C-258.72846425 182.95376766 -258.72846425 182.95376766 -256.15356445 181.05834961 C-250.69377037 178.47564778 -245.18179168 176.64253087 -239.375 175 C-237.86812622 174.55346069 -237.86812622 174.55346069 -236.33081055 174.09790039 C-230.55462486 172.42388697 -224.77375807 170.95563554 -218.88890076 169.72657776 C-215.70736539 169.05847307 -212.53611784 168.34664727 -209.36416626 167.63461304 C-207.79902682 167.29723598 -206.22891397 166.9820963 -204.65463257 166.69033813 C-199.60944487 165.75217371 -195.17147607 164.74569561 -190.6875 162.1875 C-188.38636624 158.38365202 -187.42193799 155.48739371 -186.40307617 151.17407227 C-186.16693604 150.18850342 -185.9307959 149.20293457 -185.6875 148.1875 C-185.0275 147.8575 -184.3675 147.5275 -183.6875 147.1875 C-183.20927854 145.31287187 -182.73868339 143.435946 -182.30810547 141.54980469 C-181.19668553 137.31923846 -179.43183914 133.34274205 -177.75 129.3125 C-174.99230619 122.69198834 -172.62428584 116.09656676 -170.6875 109.1875 C-170.0275 109.1875 -169.3675 109.1875 -168.6875 109.1875 C-168.51226807 108.13876709 -168.51226807 108.13876709 -168.33349609 107.06884766 C-167.62398986 103.90422463 -166.56583026 101.09345859 -165.3515625 98.0859375 C-164.86921143 96.88573975 -164.38686035 95.68554199 -163.88989258 94.44897461 C-163.36412717 93.15347004 -162.8383289 91.8579788 -162.3125 90.5625 C-161.77525305 89.2287507 -161.23839265 87.89484564 -160.7019043 86.56079102 C-157.98810001 79.82251166 -155.24408793 73.09689182 -152.48046875 66.37890625 C-151.97377885 65.14470088 -151.46710534 63.91048877 -150.96044922 62.67626953 C-150.0042708 60.35119911 -149.04381998 58.02788001 -148.07861328 55.70654297 C-147.64661621 54.65740723 -147.21461914 53.60827148 -146.76953125 52.52734375 C-146.39030518 51.61331787 -146.0110791 50.69929199 -145.62036133 49.75756836 C-144.70665583 47.24027503 -144.1375908 44.82357637 -143.6875 42.1875 C-143.0275 42.1875 -142.3675 42.1875 -141.6875 42.1875 C-141.62046875 41.424375 -141.5534375 40.66125 -141.484375 39.875 C-140.35323803 34.64071913 -138.16429467 30.04011034 -135.9375 25.1875 C-135.50695312 24.21554688 -135.07640625 23.24359375 -134.6328125 22.2421875 C-132.2018397 16.89987002 -129.84288939 12.37115734 -125.6875 8.1875 C-125.0275 8.1875 -124.3675 8.1875 -123.6875 8.1875 C-123.6875 7.5275 -123.6875 6.8675 -123.6875 6.1875 C-119.45249402 4.06999701 -115.34115587 3.1575158 -110.6875 4.1875 C-106.91098851 7.1162232 -106.91098851 7.1162232 -105.6875 10.1875 C-105.11907737 18.32381985 -108.54671927 25.63791775 -111.6875 32.9375 C-112.18443359 34.1241626 -112.68136719 35.3108252 -113.19335938 36.53344727 C-114.20583349 38.9510371 -115.22337114 41.36651292 -116.24609375 43.77978516 C-118.26252361 48.54694776 -120.22924038 53.33371381 -122.1875 58.125 C-122.54231445 58.98875244 -122.89712891 59.85250488 -123.26269531 60.74243164 C-126.88021562 69.58087451 -130.34989589 78.47764224 -133.79492188 87.38452148 C-136.21483895 93.60196445 -138.79755769 99.69036764 -141.59765625 105.74536133 C-143.05479221 109.01053403 -144.18793801 112.2920483 -145.3125 115.6875 C-149.22864158 127.20844801 -154.00294519 138.40187865 -158.65942383 149.63818359 C-159.39600715 151.46468634 -160.06471053 153.31913158 -160.6875 155.1875 C-159.3675 155.1875 -158.0475 155.1875 -156.6875 155.1875 C-156.3575 154.5275 -156.0275 153.8675 -155.6875 153.1875 C-152.06287614 152.78879138 -148.45542661 152.6781422 -144.8125 152.53125 C-143.78125 152.4178125 -142.75 152.304375 -141.6875 152.1875 C-141.3575 151.5275 -141.0275 150.8675 -140.6875 150.1875 C-138.6889162 149.94264039 -136.68802149 149.71242322 -134.68261719 149.53173828 C-131.05856548 149.11521457 -127.49463483 148.46252279 -123.9140625 147.77734375 C-123.21907654 147.6450235 -122.52409058 147.51270325 -121.80804443 147.37637329 C-119.64234475 146.96189285 -117.47734565 146.54391671 -115.3125 146.125 C-113.12163156 145.70190087 -110.93058579 145.27986343 -108.73886108 144.86122131 C-106.76629671 144.48437497 -104.79450261 144.10350324 -102.82275391 143.72241211 C-99.6875 143.1875 -99.6875 143.1875 -96.6875 143.1875 C-96.55214844 142.66285156 -96.41679687 142.13820312 -96.27734375 141.59765625 C-92.99229085 129.77540002 -87.9093594 118.39433099 -82.53515625 107.38671875 C-81.44773644 104.95826105 -81.44773644 104.95826105 -81.6875 101.1875 C-81.0275 101.1875 -80.3675 101.1875 -79.6875 101.1875 C-79.3575 98.8775 -79.0275 96.5675 -78.6875 94.1875 C-78.0275 94.1875 -77.3675 94.1875 -76.6875 94.1875 C-76.48447266 93.40052734 -76.48447266 93.40052734 -76.27734375 92.59765625 C-74.65254594 86.75032999 -72.55573329 81.16774316 -70.25 75.5625 C-69.96181396 74.85875244 -69.67362793 74.15500488 -69.37670898 73.42993164 C-67.91342493 69.91927783 -66.36295987 66.49502488 -64.62890625 63.109375 C-62.80245832 59.51623304 -61.40230359 55.86819977 -60.0625 52.0625 C-57.53817811 45.10668459 -54.62314844 38.36067292 -51.5625 31.625 C-51.14274902 30.6973584 -50.72299805 29.7697168 -50.29052734 28.81396484 C-43.37816431 13.75205961 -43.37816431 13.75205961 -39.6875 11.1875 C-36.99367518 10.24451757 -34.37241033 9.42985882 -31.625 8.6875 C-30.86509766 8.47246826 -30.10519531 8.25743652 -29.32226562 8.03588867 C-27.11302107 7.41095449 -24.90094294 6.79737362 -22.6875 6.1875 C-20.68552957 5.63205366 -18.68504912 5.07114249 -16.6875 4.5 C-15.5428125 4.18482422 -15.5428125 4.18482422 -14.375 3.86328125 C-12.477022 3.31993195 -12.477022 3.31993195 -11.6875 1.1875 C-7.81632743 0.08044336 -4.00762783 0.02284851 0 0 Z M-38.6875 132.1875 C-37.6875 134.1875 -37.6875 134.1875 -37.6875 134.1875 Z " fill="#060606" transform="translate(325.6875,-0.1875)"/>
<path d="M0 0 C5.43727617 3.1138586 9.05630488 5.90305389 10.8125 12.16015625 C11.76400935 20.04595293 9.9635433 25.8904298 5.3671875 32.359375 C4.15527204 33.90363016 2.91765551 35.42826707 1.6484375 36.92578125 C-0.03614748 38.86881453 -0.03614748 38.86881453 -0.83984375 41.8359375 C-1.54109375 42.4340625 -2.24234375 43.0321875 -2.96484375 43.6484375 C-5.17283377 45.72036027 -5.17283377 45.72036027 -4.71484375 48.7109375 C-3.85174864 51.79342003 -2.91648824 54.82133294 -1.83984375 57.8359375 C-1.30359375 57.5678125 -0.76734375 57.2996875 -0.21484375 57.0234375 C0.56890625 56.6315625 1.35265625 56.2396875 2.16015625 55.8359375 C3.10890625 55.2584375 4.05765625 54.6809375 5.03515625 54.0859375 C8.16015625 52.8359375 8.16015625 52.8359375 11.41015625 53.4609375 C14.16015625 54.8359375 14.16015625 54.8359375 16.16015625 57.8359375 C16.91591846 65.26759925 14.97561027 70.17004885 10.453125 76.05859375 C8.76363349 78.28201035 7.3049109 80.28605262 6.16015625 82.8359375 C6.48098963 85.12132595 7.23280825 86.7312415 8.26171875 88.7890625 C9.84185989 92.38903624 9.95421878 96.00795683 9.16015625 99.8359375 C7.03515625 102.5234375 7.03515625 102.5234375 4.16015625 103.8359375 C-0.31891592 103.10466041 -3.04082802 101.38853439 -5.83984375 97.8359375 C-5.83984375 96.8459375 -5.83984375 95.8559375 -5.83984375 94.8359375 C-6.79890625 95.7021875 -6.79890625 95.7021875 -7.77734375 96.5859375 C-14.34686019 101.412521 -21.58419776 104.34164323 -29.83984375 103.8359375 C-36.98547491 102.23160082 -41.91569082 99.0216739 -45.83984375 92.8359375 C-49.85520177 86.02519866 -49.58115296 79.55044106 -48.83984375 71.8359375 C-47.91694038 68.52768388 -46.58250082 65.78228553 -44.83984375 62.8359375 C-44.51628906 62.20171875 -44.19273437 61.5675 -43.859375 60.9140625 C-41.73898791 56.86369043 -39.13832127 53.96081094 -35.83984375 50.8359375 C-33.65494368 48.15951261 -33.65494368 48.15951261 -33.83984375 45.8359375 C-32.69515625 45.1553125 -32.69515625 45.1553125 -31.52734375 44.4609375 C-28.79516836 42.80892447 -27.45626226 41.55832657 -25.83984375 38.8359375 C-25.83984375 37.8459375 -25.83984375 36.8559375 -25.83984375 35.8359375 C-26.49984375 35.5059375 -27.15984375 35.1759375 -27.83984375 34.8359375 C-30.41234277 25.56892349 -30.89585957 16.30012099 -26.21484375 7.6953125 C-20.06477359 -0.62125964 -9.67850838 -3.96725653 0 0 Z M-11.83984375 14.8359375 C-14.07536134 18.18921389 -14.01267903 18.74337407 -13.46484375 22.5234375 C-13.35398437 23.33167969 -13.243125 24.13992187 -13.12890625 24.97265625 C-13.03351563 25.58753906 -12.938125 26.20242187 -12.83984375 26.8359375 C-12.03546875 26.0315625 -11.23109375 25.2271875 -10.40234375 24.3984375 C-9.21484375 23.2109375 -8.02734375 22.0234375 -6.83984375 20.8359375 C-6.79920543 19.16976635 -6.79712275 17.50205655 -6.83984375 15.8359375 C-8.48984375 15.5059375 -10.13984375 15.1759375 -11.83984375 14.8359375 Z M-17.83984375 63.8359375 C-21.38133579 65.69988068 -23.58058842 66.94369376 -24.83984375 70.8359375 C-25.00734789 73.50302819 -25.00734789 73.50302819 -24.83984375 75.8359375 C-22.71386109 77.19174361 -22.71386109 77.19174361 -19.77734375 75.8359375 C-16.50107951 74.06400319 -16.50107951 74.06400319 -15.83984375 70.3359375 C-15.51626864 66.72037496 -15.51626864 66.72037496 -17.83984375 63.8359375 Z M-15.83984375 70.8359375 C-14.83984375 72.8359375 -14.83984375 72.8359375 -14.83984375 72.8359375 Z " fill="#090909" transform="translate(306.83984375,207.1640625)"/>
<path d="M0 0 C0.33 0.66 0.66 1.32 1 2 C1.66 2.33 2.32 2.66 3 3 C2.34 3 1.68 3 1 3 C1.33 4.65 1.66 6.3 2 8 C1.01 8.33 0.02 8.66 -1 9 C-1.69937532 10.31647119 -2.36729133 11.65022151 -3 13 C-3.99 13.495 -3.99 13.495 -5 14 C-3.46527032 9.27775484 -1.76054874 4.64144669 0 0 Z " fill="#353535" transform="translate(264,55)"/>
<path d="M0 0 C2.31 0.66 4.62 1.32 7 2 C7 3.98 7 5.96 7 8 C4.35247996 5.42215154 2.05567935 3.08351902 0 0 Z " fill="#323232" transform="translate(428,314)"/>
<path d="M0 0 C0.33 0.66 0.66 1.32 1 2 C0.01 1.67 -0.98 1.34 -2 1 C-1.34 0.67 -0.68 0.34 0 0 Z " fill="#000000" transform="translate(202,207)"/>
<path d="" fill="#000000" transform="translate(0,0)"/>
<path d="" fill="#000000" transform="translate(0,0)"/>
<path d="" fill="#9F9F9F" transform="translate(0,0)"/>
<path d="" fill="#000000" transform="translate(0,0)"/>
<path d="" fill="#000000" transform="translate(0,0)"/>
<path d="" fill="#000000" transform="translate(0,0)"/>
<path d="" fill="#000000" transform="translate(0,0)"/>
<path d="" fill="#FFFFFF" transform="translate(0,0)"/>
<path d="" fill="#000000" transform="translate(0,0)"/>
<path d="" fill="#000000" transform="translate(0,0)"/>
<path d="" fill="#FFFFFF" transform="translate(0,0)"/>
<path d="" fill="#FFFFFF" transform="translate(0,0)"/>
<path d="" fill="#FFFFFF" transform="translate(0,0)"/>
<path d="" fill="#000000" transform="translate(0,0)"/>
<path d="" fill="#FFFFFF" transform="translate(0,0)"/>
<path d="" fill="#000000" transform="translate(0,0)"/>
<path d="" fill="#000000" transform="translate(0,0)"/>
<path d="" fill="#AAAAAA" transform="translate(0,0)"/>
<path d="" fill="#000000" transform="translate(0,0)"/>
<path d="" fill="#808080" transform="translate(0,0)"/>
<path d="" fill="#FFFFFF" transform="translate(0,0)"/>
<path d="" fill="#000000" transform="translate(0,0)"/>
<path d="" fill="#000000" transform="translate(0,0)"/>
<path d="" fill="#FFFFFF" transform="translate(0,0)"/>
<path d="" fill="#FFFFFF" transform="translate(0,0)"/>
<path d="" fill="#555555" transform="translate(0,0)"/>
<path d="" fill="#808080" transform="translate(0,0)"/>
<path d="" fill="#000000" transform="translate(0,0)"/>
<path d="" fill="#000000" transform="translate(0,0)"/>
<path d="" fill="#000000" transform="translate(0,0)"/>
<path d="" fill="#FFFFFF" transform="translate(0,0)"/>
<path d="" fill="#000000" transform="translate(0,0)"/>
<path d="" fill="#000000" transform="translate(0,0)"/>
<path d="" fill="#FFFFFF" transform="translate(0,0)"/>
<path d="" fill="#000000" transform="translate(0,0)"/>
<path d="" fill="#000000" transform="translate(0,0)"/>
<path d="" fill="#808080" transform="translate(0,0)"/>
<path d="" fill="#000000" transform="translate(0,0)"/>
<path d="" fill="#000000" transform="translate(0,0)"/>
<path d="" fill="#FFFFFF" transform="translate(0,0)"/>
<path d="" fill="#000000" transform="translate(0,0)"/>
<path d="" fill="#000000" transform="translate(0,0)"/>
</svg>
