<?xml version="1.0" encoding="UTF-8"?>
<svg version="1.1" xmlns="http://www.w3.org/2000/svg" width="3840" height="2160">
<path d="M0 0 C995.94 0 1991.88 0 3018 0 C3018 4.30036066 3017.3056085 5.74404824 3015.31640625 9.4453125 C3006.34513988 26.82960971 3000.39469828 45.7704048 2997 65 C2996.83918945 65.85335937 2996.67837891 66.70671875 2996.51269531 67.5859375 C2986.41139533 123.07019142 2997.43151338 183.54901047 3024 233 C3024.47211914 233.88381348 3024.94423828 234.76762695 3025.43066406 235.67822266 C3032.37158031 248.57569905 3039.73092626 260.65036804 3049 272 C3049.45632812 272.56912109 3049.91265625 273.13824219 3050.3828125 273.72460938 C3063.07102863 289.4761234 3077.5552988 304.18676548 3094 316 C3095.04027344 316.76183594 3096.08054687 317.52367187 3097.15234375 318.30859375 C3110.96358861 328.15913551 3125.59979385 336.03997174 3141.01123047 343.07373047 C3142.80303671 343.90826434 3144.56949587 344.79670775 3146.33203125 345.69140625 C3149.06847238 347.13109807 3149.06847238 347.13109807 3152.5 348 C3156 349 3156 349 3158.75 350.4375 C3162.44059026 352.21182224 3166.04386796 353.17606917 3170 354.19140625 C3172.90444457 354.97424483 3175.71379567 355.91123997 3178.5625 356.875 C3230.30575825 372.87172669 3291.06073137 369.28597903 3341.0625 349 C3341.87847656 348.67 3342.69445313 348.34 3343.53515625 348 C3344.75525391 347.505 3344.75525391 347.505 3346 347 C3346.7734375 346.70351563 3347.546875 346.40703125 3348.34375 346.1015625 C3378.6867868 333.51812665 3405.29619194 313.43039422 3429 291 C3429.680625 290.36191406 3430.36125 289.72382812 3431.0625 289.06640625 C3436.18880456 284.11809837 3440.57805879 278.57454556 3445 273 C3445.80695312 271.99839844 3446.61390625 270.99679687 3447.4453125 269.96484375 C3459.46857917 254.86772874 3468.29634913 238.16657575 3477 221 C3477.433125 220.16291504 3477.86625 219.32583008 3478.3125 218.46337891 C3493.79784383 188.22526714 3501.04072581 153.8144152 3502 120 C3502.02191406 119.30551758 3502.04382812 118.61103516 3502.06640625 117.89550781 C3502.85787899 89.01994386 3498.27165245 60.33358488 3489 33 C3488.68095703 32.05511719 3488.36191406 31.11023438 3488.03320312 30.13671875 C3487.01954839 27.16774153 3485.98418093 24.20748503 3484.9375 21.25 C3484.62127686 20.34475586 3484.30505371 19.43951172 3483.97924805 18.50683594 C3482.12998594 13.42432947 3480.01047705 9.08951177 3476.85766602 4.68261719 C3476.57463623 4.12735352 3476.29160645 3.57208984 3476 3 C3476.33 2.01 3476.66 1.02 3477 0 C3553.89 0 3630.78 0 3710 0 C3707.74988821 12.37561487 3707.74988821 12.37561487 3706.31103516 18.43188477 C3706.07578581 19.42730553 3706.07578581 19.42730553 3705.83578396 20.44283581 C3705.32295327 22.60968705 3704.80606106 24.77554602 3704.2890625 26.94140625 C3703.9209421 28.49280289 3703.55306365 30.04425695 3703.18540955 31.59576416 C3702.20494321 35.7300084 3701.22086082 39.86338383 3700.23601151 43.99658585 C3699.41533709 47.44296955 3698.59691155 50.88988562 3697.778512 54.33681011 C3693.06958183 74.16919359 3688.33124643 93.99441251 3683.5625 113.8125 C3679.87471593 129.13852472 3676.21401316 144.47061223 3672.60861206 159.81625366 C3672.12769258 161.86238711 3671.64589209 163.90831372 3671.16311646 165.95401001 C3668.3282781 177.71607455 3668.3282781 177.71607455 3665.98828125 189.58203125 C3664.7029995 197.09491389 3662.79937321 204.47831676 3661.00662231 211.88265991 C3660.03570869 215.89339331 3659.07194694 219.90583725 3658.10752869 223.9181366 C3657.58106857 226.10800826 3657.05425509 228.297795 3656.52711487 230.48750305 C3653.34464647 243.70975454 3650.19267578 256.93926912 3647.04299927 270.16936111 C3646.56060815 272.19544592 3646.07805135 274.2214912 3645.59545898 276.24752808 C3641.05863033 295.29584711 3636.55441371 314.35164733 3632.08493042 333.41589355 C3629.35731173 345.04855075 3626.60566437 356.67476868 3623.80078125 368.2890625 C3623.53399063 369.39491196 3623.26720001 370.50076141 3622.99232483 371.64012146 C3621.72745631 376.8808479 3620.45883543 382.1206091 3619.18286133 387.35864258 C3616.6981809 397.60563999 3614.3623834 407.87014585 3612.1875 418.1875 C3608.72884158 434.5612451 3604.84624473 450.82933376 3600.96094894 467.10599899 C3599.96132666 471.29676197 3598.96521609 475.48835927 3597.96899414 479.67993164 C3597.5663025 481.37413098 3597.1636078 483.06832959 3596.76091003 484.76252747 C3596.56222006 485.5984675 3596.36353008 486.43440754 3596.1588192 487.29567909 C3595.5613353 489.80878115 3594.96343634 492.32178414 3594.36543274 494.83476257 C3591.27468131 507.82556754 3588.2143677 520.82333625 3585.16717529 533.82443237 C3581.59459957 549.06637618 3577.97540884 564.29467051 3574.25 579.5 C3569.26512683 599.85212863 3564.59569751 620.27324486 3560.0625 640.73046875 C3553.74295614 669.19945667 3546.94187743 697.55027465 3540.13806152 725.90638733 C3537.7670902 735.78942386 3535.40652007 745.6748921 3533.0546875 755.5625 C3532.89555185 756.23146364 3532.73641621 756.90042728 3532.57245827 757.58966255 C3531.15226841 763.56009107 3529.7328199 769.53069572 3528.31393433 775.50143433 C3525.10152967 789.01848059 3521.8781163 802.5325542 3518.60546875 816.03515625 C3518.06408546 818.27334593 3517.52274348 820.51154559 3516.98144531 822.74975586 C3516.00300524 826.79484913 3515.01869636 830.83843979 3514.03027344 834.88110352 C3511.55321141 845.07948109 3509.29455199 855.29979389 3507.2109375 865.5859375 C3503.77389121 882.50235363 3499.77953642 899.27765078 3495.76849365 916.06530762 C3494.99902153 919.28983151 3494.23339907 922.51526347 3493.46792698 925.74073887 C3489.35992061 943.04928614 3485.19621305 960.34370779 3480.98139954 977.62653923 C3476.73858401 995.02829167 3472.56797437 1012.44699654 3468.4230957 1029.87231445 C3467.59251338 1033.36337894 3466.75970782 1036.85390211 3465.92504883 1040.34399414 C3460.32813643 1063.45614875 3460.32813643 1063.45614875 3455.45089722 1086.72647095 C3453.11602905 1098.83699772 3450.14604782 1110.82171091 3447.31147003 1122.8233223 C3446.80445835 1124.97157312 3446.29872143 1127.12012024 3445.793396 1129.26876831 C3441.80605477 1146.2227522 3437.78910541 1163.16889696 3433.63842773 1180.08374023 C3428.92204206 1199.31869271 3424.34257506 1218.58688668 3419.73755455 1237.84873295 C3419.20444835 1240.07842638 3418.67118297 1242.30808169 3418.13790894 1244.53773499 C3417.43768851 1247.46555883 3416.73835271 1250.3935921 3416.0395813 1253.32176208 C3414.4112396 1260.14011304 3412.77034255 1266.95481437 3411.09472656 1273.76171875 C3408.40392794 1284.71647439 3405.8007172 1295.6507382 3403.67578125 1306.73046875 C3400.32814148 1324.09871803 3396.02390078 1341.25595008 3391.87794495 1358.44677353 C3389.99119796 1366.27781179 3388.11638167 1374.11172359 3386.23905563 1381.94502449 C3385.52772953 1384.91245314 3384.81584535 1387.87974754 3384.10391235 1390.84703064 C3379.93265792 1408.24030068 3375.8293537 1425.64915543 3371.74785233 1443.06367111 C3365.02178224 1471.75696273 3358.16781402 1500.41351438 3351 1529 C3347.32710661 1528.44774825 3344.94550775 1527.55417029 3341.9296875 1525.40234375 C3336.4438118 1521.59718421 3330.79498581 1518.08563278 3325.125 1514.5625 C3319.1654431 1510.8539095 3313.20992578 1507.14181442 3307.296875 1503.359375 C3302.62348143 1500.379173 3297.90285638 1497.49670259 3293.125 1494.6875 C3292.40570312 1494.25888672 3291.68640625 1493.83027344 3290.9453125 1493.38867188 C3287.37572705 1491.28563486 3283.9215234 1489.39175634 3280 1488 C3280 1487.34 3280 1486.68 3280 1486 C3279.236875 1485.79375 3278.47375 1485.5875 3277.6875 1485.375 C3272.49187422 1483.43764802 3267.83118064 1480.7013053 3263 1478 C3243.0553053 1467.0533012 3223.02062909 1456.35405861 3202.61376953 1446.29296875 C3199.47058551 1444.73811142 3196.33923634 1443.16052541 3193.20849609 1441.58081055 C3185.01848183 1437.45414354 3176.7985466 1433.46033458 3168.25 1430.125 C3164.29267555 1428.56902413 3160.46459172 1426.82711606 3156.625 1425 C3145.73659211 1419.83946055 3134.61621328 1415.19661935 3123.52441406 1410.49462891 C3121.28830126 1409.54634111 3119.05315559 1408.59576692 3116.81933594 1407.64208984 C3101.9322823 1401.28844774 3086.88414463 1395.49751578 3071.6652832 1389.98632812 C3069.86805056 1389.32123516 3068.07970048 1388.63169708 3066.30053711 1387.91967773 C3063.9747006 1386.98988615 3061.65545921 1386.25819654 3059.25 1385.5625 C3054.45405904 1384.17294757 3049.73153758 1382.59211803 3045 1381 C3028.29074379 1375.356119 3028.29074379 1375.356119 3011.46875 1370.0625 C3008.54449397 1369.16678194 3005.63090174 1368.24650945 3002.71875 1367.3125 C3001.75791504 1367.00449463 3000.79708008 1366.69648926 2999.80712891 1366.37915039 C2997.91296905 1365.77084277 2996.01937231 1365.16077763 2994.12646484 1364.54858398 C2988.87208502 1362.8632438 2983.60277645 1361.31006618 2978.27294922 1359.88208008 C2974.14679603 1358.77005625 2970.03086707 1357.622624 2965.9140625 1356.4765625 C2932.33251715 1346.91296066 2932.33251715 1346.91296066 2898.125 1340.0625 C2892.82359197 1339.20522186 2887.68111311 1337.97687231 2882.49609375 1336.5859375 C2879.94055547 1335.8857351 2879.94055547 1335.8857351 2877 1336 C2877 1335.34 2877 1334.68 2877 1334 C2875.948125 1334.309375 2875.948125 1334.309375 2874.875 1334.625 C2871.33346824 1335.08693893 2869.36607815 1334.1651809 2866 1333 C2864.52491032 1332.80044491 2863.04481008 1332.6358994 2861.5625 1332.5 C2858.69734302 1332.2330303 2856.4172695 1331.82733911 2853.625 1331 C2850.65484987 1330.18064824 2848.3395181 1329.80794801 2845.3125 1329.59375 C2838.34276339 1329.0024484 2831.45795702 1327.9343068 2824.55322266 1326.84326172 C2822.3449264 1326.49526076 2820.13545029 1326.15556928 2817.92578125 1325.81640625 C2816.52075646 1325.59684553 2815.11580552 1325.37681161 2813.7109375 1325.15625 C2812.44556152 1324.95837891 2811.18018555 1324.76050781 2809.87646484 1324.55664062 C2807 1324 2807 1324 2806 1323 C2804.24119391 1322.81589851 2802.47626992 1322.69031014 2800.7109375 1322.5859375 C2794.94220657 1322.18273819 2789.21825858 1321.59996297 2783.4765625 1320.9140625 C2782.61669739 1320.81193954 2781.75683228 1320.70981659 2780.87091064 1320.604599 C2779.06047815 1320.3894162 2777.25007436 1320.17399184 2775.43969727 1319.95834351 C2759.48134558 1318.0684021 2743.52348944 1316.41431122 2727.5 1315.1875 C2726.29286346 1315.09302582 2726.29286346 1315.09302582 2725.06134033 1314.99664307 C2716.86401833 1314.36179526 2708.72745585 1313.85135452 2700.49804688 1314.0559082 C2697.88634263 1313.99745626 2695.54968969 1313.54478071 2693 1313 C2690.95877396 1312.95758491 2688.91625641 1312.95907255 2686.875 1313 C2683.4936398 1313.06745856 2681.2240097 1313.0746699 2678 1312 C2675.18522916 1311.84463987 2672.39122417 1311.74189369 2669.57421875 1311.68359375 C2668.72712341 1311.66272202 2667.88002808 1311.64185028 2667.00726318 1311.62034607 C2664.23410293 1311.5540023 2661.46085284 1311.49519463 2658.6875 1311.4375 C2657.27115768 1311.40623016 2657.27115768 1311.40623016 2655.82620239 1311.37432861 C2624.41569036 1310.58222104 2624.41569036 1310.58222104 2593.0390625 1311.78125 C2587.26158626 1312.15568897 2581.46916209 1312.04653915 2575.68310547 1311.96289062 C2571.59847096 1311.91999 2568.00732638 1312.15773764 2564 1313 C2560.29141512 1313.06644721 2556.59519663 1312.99848216 2552.88671875 1312.9375 C2549.03381587 1312.92509919 2549.03381587 1312.92509919 2545.37988281 1313.47729492 C2540.60501411 1314.09924792 2535.843895 1314.25783886 2531.03515625 1314.42578125 C2518.79228302 1314.92454989 2506.62970057 1315.99319423 2494.4375 1317.1875 C2493.32513977 1317.29504608 2492.21277954 1317.40259216 2491.06671143 1317.51339722 C2461.87666085 1320.35149887 2432.78229451 1324.11031603 2403.82958984 1328.79516602 C2398.58040894 1329.64173287 2393.353715 1330.3183256 2388.05761719 1330.79785156 C2385.02350433 1331.09593479 2382.12158615 1331.73329586 2379.16015625 1332.4375 C2374.58245349 1333.49707677 2370.02601076 1334.32105935 2365.375 1335 C2361.96804126 1335.50356896 2358.81538693 1336.05274659 2355.5 1337 C2352.2779534 1337.92058474 2349.24786839 1338.45548487 2345.9375 1338.9375 C2339.92539768 1339.81325132 2334.02446649 1341.00375914 2328.09375 1342.31640625 C2326.34538794 1342.70272362 2324.59443284 1343.07867847 2322.83666992 1343.41967773 C2319.04671992 1344.19502081 2315.28445988 1345.08148198 2311.51953125 1345.96875 C2310.68774353 1346.16446091 2309.85595581 1346.36017181 2308.9989624 1346.56181335 C2275.81207647 1354.38923852 2243.06040491 1363.15329311 2210.37133789 1372.86010742 C2209.30427612 1373.17687943 2208.23721436 1373.49365143 2207.13781738 1373.82002258 C2205.14278629 1374.41298057 2203.14812563 1375.0071871 2201.15393066 1375.60295105 C2195.62788074 1377.24761312 2190.08687004 1378.81536408 2184.51878357 1380.3117981 C2178.15316375 1382.05106293 2171.85900822 1384.00463995 2165.609375 1386.12109375 C2163.56074691 1386.81112567 2161.50772422 1387.48811223 2159.453125 1388.16015625 C2158.49249146 1388.47557373 2158.49249146 1388.47557373 2157.51245117 1388.79736328 C2155.65594442 1389.40682374 2153.79869448 1390.01401896 2151.94140625 1390.62109375 C2149.07046519 1391.59431273 2146.27018473 1392.68777098 2143.46484375 1393.8359375 C2138.74467844 1395.74729876 2133.9619565 1397.42359439 2129.14562988 1399.07536316 C2111.24567737 1405.21714458 2093.6805341 1412.01665842 2076.17773438 1419.21166992 C2074.47396109 1419.91195332 2072.77018513 1420.61223021 2071.06640625 1421.3125 C2069.8561956 1421.81063454 2069.8561956 1421.81063454 2068.62153625 1422.3188324 C2063.50612824 1424.4143622 2058.36599178 1426.39336278 2053.13964844 1428.19873047 C2050.28508847 1429.26772474 2047.62402632 1430.61569804 2044.94921875 1432.0703125 C2043 1433 2043 1433 2040.20922852 1433.92456055 C2029.85265369 1437.39513583 2019.94146401 1442.23000654 2010.02001953 1446.77368164 C2007.76886431 1447.80386722 2005.51539973 1448.82886952 2003.26171875 1449.85351562 C1994.05071521 1454.05563942 1984.95520466 1458.44626316 1975.92559814 1463.02450562 C1972.77889548 1464.6186029 1969.62551342 1466.19937022 1966.47265625 1467.78125 C1965.8649942 1468.08634491 1965.25733215 1468.39143982 1964.6312561 1468.70578003 C1962.77520034 1469.63757844 1960.91889702 1470.56888168 1959.0625 1471.5 C1958.41224854 1471.82626373 1957.76199707 1472.15252747 1957.09204102 1472.48867798 C1949.77388813 1476.1574872 1942.44346564 1479.77795429 1935 1483.1875 C1924.7213976 1487.92869991 1914.88484598 1493.49755859 1905 1499 C1903.94022949 1499.5868457 1902.88045898 1500.17369141 1901.78857422 1500.77832031 C1885.26332755 1509.90266431 1885.26332755 1509.90266431 1869.16015625 1519.7421875 C1867 1521 1867 1521 1865 1521 C1865 1521.66 1865 1522.32 1865 1523 C1864.071875 1523.45375 1863.14375 1523.9075 1862.1875 1524.375 C1858.96078611 1525.9421633 1858.96078611 1525.9421633 1856 1528 C1852.82464957 1527.57661994 1849.94487474 1526.22703114 1847 1525 C1847 1524.34 1847 1523.68 1847 1523 C1845.35 1522.67 1843.7 1522.34 1842 1522 C1842 1521.34 1842 1520.68 1842 1520 C1841.31679687 1519.74863281 1840.63359375 1519.49726562 1839.9296875 1519.23828125 C1836.51253237 1517.79396368 1833.33827584 1516.02798322 1830.125 1514.1875 C1829.44010498 1513.79933105 1828.75520996 1513.41116211 1828.04956055 1513.01123047 C1824.81117526 1511.17508776 1821.57790516 1509.33003412 1818.34521484 1507.48388672 C1807.80577879 1501.4685152 1797.24586182 1495.51564689 1786.5 1489.875 C1785.64639893 1489.42592285 1784.79279785 1488.9768457 1783.91333008 1488.51416016 C1780.33023439 1486.64979098 1776.76575155 1484.86223814 1773.03125 1483.3203125 C1770 1482 1770 1482 1768 1480 C1766.77031415 1479.34201485 1765.51473941 1478.73166226 1764.24609375 1478.15234375 C1763.48409668 1477.79962402 1762.72209961 1477.4469043 1761.93701172 1477.08349609 C1761.11217285 1476.70531738 1760.28733398 1476.32713867 1759.4375 1475.9375 C1753.3084314 1473.08855246 1747.29659585 1470.131228 1741.375 1466.875 C1728.33860797 1459.79760004 1714.62550364 1453.98805856 1701.09234619 1447.93652344 C1699.04679511 1447.02094525 1697.00242346 1446.10279031 1694.95849609 1445.18359375 C1691.24518657 1443.51368445 1687.52931862 1441.84958583 1683.8125 1440.1875 C1682.70342285 1439.69016357 1681.5943457 1439.19282715 1680.45166016 1438.68041992 C1679.42218262 1438.22256104 1678.39270508 1437.76470215 1677.33203125 1437.29296875 C1676.44233643 1436.8961792 1675.5526416 1436.49938965 1674.63598633 1436.09057617 C1671.79664441 1434.9158665 1668.91853675 1433.95821888 1666 1433 C1664.7137337 1432.38547819 1663.44052264 1431.74224431 1662.1875 1431.0625 C1658.75252361 1429.29981475 1655.34490541 1428.07148723 1651.671875 1426.90625 C1643.71883017 1424.20872602 1635.98016175 1420.83127758 1628.23828125 1417.5859375 C1611.30557449 1410.52436871 1594.06085543 1404.24058473 1576.8125 1398 C1576.02633301 1397.71487549 1575.24016602 1397.42975098 1574.43017578 1397.13598633 C1572.16931098 1396.31697303 1569.90718169 1395.50156557 1567.64453125 1394.6875 C1566.97569412 1394.44519653 1566.30685699 1394.20289307 1565.61775208 1393.95324707 C1562.46390898 1392.823786 1559.32333285 1391.80453303 1556.0847168 1390.95703125 C1555.06676025 1390.64121094 1554.04880371 1390.32539062 1553 1390 C1552.67 1389.34 1552.34 1388.68 1552 1388 C1551.13375 1388.061875 1550.2675 1388.12375 1549.375 1388.1875 C1545.51199516 1387.97288862 1543.40175727 1386.77174858 1540 1385 C1538.00371336 1384.6451046 1536.00309329 1384.31421071 1534 1384 C1532.61689229 1383.57197915 1531.24178534 1383.11768441 1529.87329102 1382.64501953 C1525.22123128 1381.06543841 1520.54110569 1379.60519117 1515.83984375 1378.1796875 C1514.98441986 1377.91958389 1514.12899597 1377.65948029 1513.24765015 1377.39149475 C1510.4782117 1376.550629 1507.707995 1375.71237772 1504.9375 1374.875 C1503.98813568 1374.5878714 1503.03877136 1374.3007428 1502.06063843 1374.00491333 C1489.50684521 1370.21270816 1476.93716551 1366.48710757 1464.3125 1362.9375 C1463.08845459 1362.59251465 1461.86440918 1362.2475293 1460.60327148 1361.89208984 C1452.5136797 1359.63827876 1444.38691523 1357.55762091 1436.23348999 1355.55044556 C1433.85004356 1354.9630431 1431.46757301 1354.37179006 1429.08520508 1353.7800293 C1424.70330622 1352.69249633 1420.31963062 1351.61234598 1415.93505859 1350.53564453 C1414.13743532 1350.09334879 1412.34023674 1349.64932356 1410.54345703 1349.20361328 C1397.03587124 1345.84614975 1397.03587124 1345.84614975 1383.34643555 1343.35766602 C1378.40253473 1342.60406965 1373.55501885 1341.373131 1368.6953125 1340.20703125 C1367.53773437 1339.93246094 1366.38015625 1339.65789062 1365.1875 1339.375 C1364.10855469 1339.11460938 1363.02960938 1338.85421875 1361.91796875 1338.5859375 C1358.84241678 1337.86875115 1358.84241678 1337.86875115 1355 1338 C1355 1337.34 1355 1336.68 1355 1336 C1354.01 1336.33 1353.02 1336.66 1352 1337 C1350.04530908 1336.59665108 1348.10794056 1336.10602091 1346.1875 1335.5625 C1341.9760209 1334.37218335 1338.38164383 1333.83626144 1334 1334 C1334 1333.34 1334 1332.68 1334 1332 C1332.9790625 1332.309375 1332.9790625 1332.309375 1331.9375 1332.625 C1328.19084174 1333.1032968 1325.62452697 1332.04148752 1322 1331 C1319.61113697 1330.63805106 1317.21397332 1330.32820569 1314.8125 1330.0625 C1308.21240939 1329.29401263 1301.63597978 1328.40805322 1295.0625 1327.4375 C1294.17989502 1327.31060791 1293.29729004 1327.18371582 1292.38793945 1327.05297852 C1286.11831016 1326.11831016 1286.11831016 1326.11831016 1285 1325 C1283.47194042 1324.82670071 1281.93724666 1324.7124334 1280.40234375 1324.6171875 C1274.30605514 1324.15536107 1268.25753198 1323.45390965 1262.19140625 1322.6953125 C1261.1922821 1322.57103378 1260.19315796 1322.44675507 1259.16375732 1322.31871033 C1257.05476722 1322.05634955 1254.94579968 1321.79380725 1252.83685303 1321.53109741 C1236.03927919 1319.44779998 1219.25172822 1317.50290686 1202.375 1316.1875 C1201.28132614 1316.10208954 1201.28132614 1316.10208954 1200.16555786 1316.01495361 C1195.44535616 1315.65131748 1190.72343915 1315.31921438 1186 1315 C1185.29830688 1314.9516803 1184.59661377 1314.9033606 1183.87365723 1314.85357666 C1181.7415034 1314.70759233 1179.60910777 1314.56592137 1177.4765625 1314.42578125 C1176.23213379 1314.34368408 1174.98770508 1314.26158691 1173.70556641 1314.17700195 C1171.04362695 1314.04985041 1168.43531964 1313.98818509 1165.77490234 1314.00463867 C1162.47773381 1314.00058705 1159.39854934 1313.68050306 1156.140625 1313.21875 C1152.92058614 1312.88969493 1149.72455695 1312.97771654 1146.4921875 1313.0625 C1144 1313 1144 1313 1141.35473633 1312.51586914 C1137.5082901 1311.92438811 1133.71444762 1311.77176894 1129.83203125 1311.68359375 C1129.04883514 1311.66272202 1128.26563904 1311.64185028 1127.45870972 1311.62034607 C1124.91007014 1311.5543093 1122.36133996 1311.49525313 1119.8125 1311.4375 C1118.49422714 1311.40623016 1118.49422714 1311.40623016 1117.14932251 1311.37432861 C1094.66559012 1310.84474687 1072.23338039 1310.94224501 1049.75 1311.4375 C1048.35447403 1311.46683624 1048.35447403 1311.46683624 1046.93075562 1311.49676514 C1044.26099305 1311.55429 1041.59144865 1311.61793746 1038.921875 1311.68359375 C1038.12507828 1311.70031631 1037.32828156 1311.71703888 1036.50733948 1311.73426819 C1031.9322179 1311.85518777 1027.53079277 1312.2956047 1023 1313 C1021.18796925 1313.0412411 1019.37451149 1313.04207864 1017.5625 1313 C971.41037764 1312.56141989 923.80408289 1320.00602653 878.37353516 1327.52709961 C877.19452637 1327.72182861 876.01551758 1327.91655762 874.80078125 1328.1171875 C873.79184814 1328.28847168 872.78291504 1328.45975586 871.7434082 1328.63623047 C869.12102428 1328.98395246 866.64066285 1329.03203528 864 1329 C862.32561538 1329.29210448 860.65796692 1329.62578803 859 1330 C853.34473662 1331.1637841 847.7231166 1332.21447419 842 1333 C841.13375 1333.185625 840.2675 1333.37125 839.375 1333.5625 C836.86804081 1334.02430827 834.54338772 1334.07266822 832 1334 C831.67 1334.66 831.34 1335.32 831 1336 C829.68 1335.67 828.36 1335.34 827 1335 C826.67 1335.66 826.34 1336.32 826 1337 C823.62109375 1337.4921875 823.62109375 1337.4921875 820.4375 1337.875 C814.65482086 1338.68042212 809.10907684 1339.89527331 803.46403503 1341.37638855 C799.24361026 1342.47033505 795.01858703 1343.4329382 790.74359131 1344.28718567 C778.27776877 1346.78486176 766.0206569 1350.00109274 753.75 1353.3125 C752.07854416 1353.7614563 752.07854416 1353.7614563 750.37332153 1354.21948242 C728.92913218 1359.99907247 707.77501987 1366.55847308 686.67822266 1373.48912048 C680.75973893 1375.43285067 674.82898324 1377.33339624 668.88671875 1379.203125 C667.70312523 1379.57561371 667.70312523 1379.57561371 666.49562073 1379.95562744 C665.00227323 1380.42546248 663.50891155 1380.89525247 662.01553345 1381.36499023 C645.99365672 1386.41280931 630.33086062 1392.05210306 614.79541016 1398.44238281 C611.2503357 1399.90001365 607.69870937 1401.34121424 604.14640808 1402.78112793 C585.15728335 1410.48101856 566.28042001 1418.35440316 547.61621094 1426.81518555 C542.54742761 1429.11070677 537.47041107 1431.37947396 532.34375 1433.54296875 C518.33332286 1439.49053062 504.916494 1446.62635195 491.42887878 1453.65559387 C486.57573826 1456.18441222 481.71313837 1458.69403294 476.84375 1461.19140625 C474.90716569 1462.18629601 472.9707258 1463.18146628 471.03433228 1464.17672729 C469.25381892 1465.09094795 467.47202632 1466.00267586 465.69018555 1466.91430664 C460.39127533 1469.64503576 455.17703188 1472.44844972 450.05078125 1475.4921875 C445.8270928 1477.9949982 441.55113415 1480.25369526 437.140625 1482.41015625 C429.76820526 1486.0385472 422.76977738 1490.17542307 415.75 1494.4375 C413.94046111 1495.53465048 412.13002867 1496.63014603 410.31622314 1497.7202301 C408.70270907 1498.68999735 407.09293408 1499.6659779 405.48339844 1500.64233398 C403 1502 403 1502 401 1502 C401 1502.66 401 1503.32 401 1504 C399.29785156 1505.21411133 399.29785156 1505.21411133 396.890625 1506.58203125 C395.99939941 1507.09612549 395.10817383 1507.61021973 394.18994141 1508.13989258 C392.73467041 1508.96783325 392.73467041 1508.96783325 391.25 1509.8125 C380.25025154 1516.1771173 369.58564119 1522.97245528 359 1530 C357.17668319 1527.26502478 356.57352676 1525.85882858 355.86181641 1522.77124023 C355.5590126 1521.47891983 355.5590126 1521.47891983 355.25009155 1520.16049194 C355.03607697 1519.21936554 354.82206238 1518.27823914 354.6015625 1517.30859375 C354.25576645 1515.82318588 354.25576645 1515.82318588 353.90298462 1514.30776978 C353.4022781 1512.15420926 352.90433778 1510.00000418 352.40881348 1507.84524536 C351.06333357 1501.99557187 349.69774556 1496.15057693 348.3359375 1490.3046875 C348.05621094 1489.10109085 347.77648437 1487.8974942 347.48828125 1486.65742493 C345.03314077 1476.10400179 342.51060857 1465.56757825 339.96762085 1455.03503418 C336.2687206 1439.71342331 332.60949406 1424.38288127 329.00390625 1409.0390625 C328.7464371 1407.94341067 328.7464371 1407.94341067 328.48376656 1406.82562447 C326.90992621 1400.12690898 325.33766088 1393.42782432 323.76699829 1386.72836304 C319.90501531 1370.25673992 316.00161768 1353.79815456 311.9375 1337.375 C309.28422112 1326.64752288 306.90592437 1315.90043374 304.75 1305.0625 C301.44085945 1288.44561441 297.4674386 1272.00561802 293.46411133 1255.54418945 C292.88616003 1253.1674976 292.30828074 1250.79078823 291.73046875 1248.4140625 C291.43475479 1247.19798813 291.13904083 1245.98191376 290.83436584 1244.72898865 C287.14594424 1229.52871269 283.56880949 1214.30215185 279.9852066 1199.07689285 C278.35993641 1192.17204713 276.73342738 1185.26749361 275.10546875 1178.36328125 C274.93012604 1177.61960485 274.75478333 1176.87592846 274.5741272 1176.10971642 C272.2138619 1166.10282385 269.83319764 1156.10113992 267.42578125 1146.10546875 C267.15112534 1144.96483978 266.87646942 1143.82421082 266.5934906 1142.64901733 C265.34717664 1137.47751687 264.09716247 1132.3069464 262.84155273 1127.13769531 C260.6814687 1118.21796977 258.60065906 1109.28916469 256.671875 1100.31640625 C250.23154849 1070.36798007 243.097988 1040.57289295 236.02826691 1010.7683754 C234.80929146 1005.62797917 233.59195966 1000.48719372 232.37451172 995.34643555 C230.45391346 987.23715632 228.53263873 979.12803774 226.61083984 971.01904297 C222.76427728 954.78776019 218.92538837 938.55466386 215.09179688 922.3203125 C214.84928192 921.29332245 214.60676697 920.2663324 214.35690308 919.20822144 C213.89065738 917.23372295 213.42444904 915.25921565 212.95828247 913.28469849 C211.68013454 907.87276659 210.39798122 902.46180676 209.11169434 897.05180359 C208.34962283 893.84530824 207.58962367 890.63832396 206.83001709 887.4312439 C206.495161 886.01988411 206.15932908 884.60875533 205.82232666 883.19790649 C204.16443129 876.25681216 202.61754544 869.33215603 201.41870117 862.29589844 C201.02986576 860.16376536 200.53141265 858.10032727 200 856 C199.66246414 854.58944222 199.32752618 853.17826126 198.99462891 851.76660156 C198.79497528 850.9206694 198.59532166 850.07473724 198.38961792 849.20317078 C198.17080963 848.27503067 197.95200134 847.34689056 197.7265625 846.390625 C197.23667994 844.31517934 196.74676951 842.23974026 196.25683594 840.16430664 C195.99286011 839.04573273 195.72888428 837.92715881 195.45690918 836.77468872 C190.17523227 814.39692503 184.87119761 792.02453516 179.55440617 769.65509129 C176.31394845 756.02110019 173.0768866 742.38630246 169.84022999 728.75140858 C168.81383611 724.42766978 167.78723284 720.10398089 166.76019287 715.78039551 C164.54847716 706.46944789 162.33842094 697.15811217 160.13327217 687.8456068 C159.20020344 683.90536138 158.26621233 679.96534077 157.32971191 676.02590942 C156.45986059 672.36668501 155.59274758 668.70682238 154.72770119 665.0464592 C154.26484842 663.09095526 153.7991931 661.1361153 153.3334198 659.18130493 C151.86581121 652.95868256 150.54243855 646.7463007 149.44084167 640.44868469 C148.80981495 636.94360435 148.02802725 633.48223741 147.21484375 630.015625 C147.04233093 629.27143311 146.86981812 628.52724121 146.69207764 627.76049805 C146.11027271 625.25627639 145.52408667 622.75310563 144.9375 620.25 C144.7288028 619.35551147 144.52010559 618.46102295 144.30508423 617.53942871 C139.30441907 596.10913082 134.15797477 574.71334194 129.02360725 553.31478405 C123.80129122 531.54949 118.61841301 509.77540947 113.48364258 487.98925781 C112.97221041 485.81965145 112.46073645 483.65005494 111.94921875 481.48046875 C111.7024086 480.43359894 111.45559845 479.38672913 111.2013092 478.30813599 C109.5085788 471.13571304 107.79975698 463.96725605 106.08203125 456.80078125 C105.85026688 455.83267014 105.6185025 454.86455902 105.37971497 453.86711121 C104.30861749 449.39326724 103.23518722 444.92001668 102.15649414 440.44799805 C99.71410915 430.27928857 97.54137175 420.09228652 95.58425903 409.81733704 C94.19187062 402.65407651 92.50524724 395.57220353 90.7890625 388.48046875 C90.46556796 387.13677091 90.14229707 385.79301922 89.81922913 384.44921875 C89.12273173 381.55304411 88.42530521 378.65709562 87.72714233 375.76132202 C85.81078974 367.81107311 83.90250335 359.8588883 81.99609375 351.90625 C81.79536821 351.06901083 81.59464268 350.23177166 81.38783455 349.36916161 C75.98722545 326.83309754 70.69549644 304.27143237 65.40237427 281.70993042 C64.1465477 276.35723846 62.89010346 271.00469194 61.6328125 265.65234375 C61.3304345 264.36509809 61.3304345 264.36509809 61.02194786 263.05184746 C58.4605778 252.15305 55.87380635 241.2609686 53.2421875 230.37890625 C52.96294937 229.22323654 52.68371124 228.06756683 52.39601135 226.87687683 C51.16773788 221.7990677 49.93368752 216.72279163 48.68823242 211.64916992 C46.45550919 202.49510451 44.43672641 193.3313637 42.63671875 184.08203125 C39.91322161 170.13473574 36.60147457 156.33867453 33.25626755 142.53028107 C31.84233391 136.6854396 30.44103298 130.83754257 29.03680229 124.99036407 C28.48563468 122.69601437 27.93389432 120.40180292 27.38209534 118.10760498 C24.70151965 106.95672115 22.05114534 95.79888538 19.41796875 84.63671875 C19.22953777 83.83797018 19.0411068 83.03922161 18.84696579 82.21626854 C17.18968347 75.18951255 15.53470809 68.16221376 13.88049316 61.13473511 C13.03220853 57.5311018 12.1833899 53.92759469 11.33411789 50.32419395 C11.00689486 48.93550445 10.67984817 47.54677338 10.35298538 46.15799904 C8.57856329 38.62053366 6.78509468 31.08830239 4.94970703 23.56542969 C4.78459531 22.88740232 4.61948359 22.20937496 4.44936848 21.51080132 C3.66566361 18.29353753 2.8783389 15.07729395 2.08470154 11.86245728 C1.80997513 10.73786102 1.53524872 9.61326477 1.25219727 8.45458984 C1.00945572 7.46937347 0.76671417 6.4841571 0.51661682 5.46908569 C0 3 0 3 0 0 Z M2559 374 C2559 406.67 2559 439.34 2559 473 C2562.76930979 473.75386196 2565.59088671 474.12264991 2569.34106445 474.11352539 C2570.90211662 474.11341209 2570.90211662 474.11341209 2572.4947052 474.11329651 C2574.16215034 474.10555458 2574.16215034 474.10555458 2575.86328125 474.09765625 C2577.01040085 474.0962413 2578.15752045 474.09482635 2579.33940125 474.09336853 C2582.99712754 474.08777861 2586.65479225 474.07522789 2590.3125 474.0625 C2592.79492099 474.0574837 2595.27734294 474.05292102 2597.75976562 474.04882812 C2603.8398647 474.03781247 2609.91992795 474.0210843 2616 474 C2613.36621303 487.48408808 2607.98344382 500.22634351 2603.0625 513 C2602.35182556 514.85401799 2601.64153682 516.70818388 2600.93164062 518.5625 C2595.62196076 532.42046665 2595.62196076 532.42046665 2593.38232422 538.13671875 C2592.92486816 539.30847656 2592.46741211 540.48023438 2591.99609375 541.6875 C2591.60478271 542.68136719 2591.21347168 543.67523437 2590.81030273 544.69921875 C2589.88927114 546.90785455 2589.88927114 546.90785455 2590 549 C2594.01984283 549.23368566 2598.03793087 549.3748607 2602.0625 549.5 C2603.19623047 549.56703125 2604.32996094 549.6340625 2605.49804688 549.703125 C2611.7259163 549.94817183 2611.7259163 549.94817183 2617.19042969 547.38354492 C2618.97255111 545.34223664 2620.48964376 543.24755084 2622 541 C2622.87858674 539.97867584 2623.77533748 538.97248837 2624.6953125 537.98828125 C2626.32134627 536.19755274 2627.9463389 534.4058783 2629.5703125 532.61328125 C2631.26431891 530.79127114 2633.01462666 529.02070157 2634.8046875 527.29296875 C2637.23051928 525.28830051 2637.23051928 525.28830051 2637 523 C2637.66 523 2638.32 523 2639 523 C2639 522.34 2639 521.68 2639 521 C2639.8971875 520.5978125 2639.8971875 520.5978125 2640.8125 520.1875 C2643.01819033 518.99012525 2644.43583187 517.95521016 2646 516 C2646 515.01 2646 514.02 2646 513 C2646.57105469 512.75507812 2647.14210938 512.51015625 2647.73046875 512.2578125 C2655.00460232 508.22636498 2660.66674527 500.28609429 2666 494 C2666.50917969 493.41863281 2667.01835937 492.83726562 2667.54296875 492.23828125 C2670.17831162 489.51266482 2670.17831162 489.51266482 2671 486 C2671.66 486 2672.32 486 2673 486 C2673 485.34 2673 484.68 2673 484 C2673.66 484 2674.32 484 2675 484 C2675 483.34 2675 482.68 2675 482 C2675.66 482 2676.32 482 2677 482 C2677.08271446 457.9949905 2676.84084864 434.00247738 2676.5 410 C2676.335 398.12 2676.17 386.24 2676 374 C2637.39 374 2598.78 374 2559 374 Z M1283.625 406.75 C1282.84205566 406.79090759 1282.05911133 406.83181519 1281.25244141 406.8739624 C1267.64704631 407.60164656 1254.1632202 408.94836187 1240.65087891 410.67871094 C1239.96957916 410.76569244 1239.28827942 410.85267395 1238.58633423 410.94229126 C1236.75744893 411.17822597 1234.92946482 411.42111756 1233.1015625 411.66455078 C1230 412 1230 412 1227.2890625 411.99169922 C1224.80281786 411.89630394 1224.80281786 411.89630394 1221.75 412.9375 C1218.18642155 413.94718056 1214.97965882 414.38681403 1211.30859375 414.65625 C1208.3983526 415.0895854 1205.78823493 416.06367823 1203 417 C1200.71421443 417.50647917 1198.42203054 417.98474454 1196.125 418.4375 C1192.18900469 419.25526188 1188.42456074 420.07369109 1184.6875 421.5625 C1181.94317409 422.63232196 1179.74402702 423.32020956 1176.9140625 423.8828125 C1171.71125226 425.00477942 1166.7247118 426.60635506 1161.6875 428.3125 C1160.76106689 428.62517822 1159.83463379 428.93785645 1158.88012695 429.26000977 C1147.16979262 433.25648328 1136.17244295 438.23361501 1125.18457031 443.88330078 C1122.9612859 445.01978971 1120.72740193 446.13328108 1118.4921875 447.24609375 C1095.3415392 458.92368202 1074.66250154 474.07417615 1056 492 C1055.1028125 492.8559375 1054.205625 493.711875 1053.28125 494.59375 C1038.24990552 509.25395018 1026.37116478 526.7510585 1016.12744141 545.00048828 C1015.07624894 546.86477289 1013.99984114 548.71201195 1012.91796875 550.55859375 C979.95886768 608.06393301 978.19588943 684.50193572 994.3046875 747.19140625 C1001.72842106 774.46619799 1015.15129175 801.35523574 1032 824 C1032.41991211 824.57395508 1032.83982422 825.14791016 1033.27246094 825.73925781 C1039.315881 833.98114294 1045.91507015 841.63052596 1053 849 C1053.59490234 849.62213379 1054.18980469 850.24426758 1054.80273438 850.88525391 C1056.69117574 852.85084382 1058.59281219 854.80260634 1060.5 856.75 C1061.09973633 857.37124756 1061.69947266 857.99249512 1062.31738281 858.63256836 C1063.82095221 860.14748949 1065.4051851 861.58145412 1067 863 C1067.99 863 1068.98 863 1070 863 C1070.29777344 863.82177734 1070.29777344 863.82177734 1070.6015625 864.66015625 C1072.5822425 867.97419904 1075.38010642 870.08428615 1078.375 872.4375 C1079.03201904 872.95683105 1079.68903809 873.47616211 1080.3659668 874.01123047 C1107.59853711 895.1244412 1138.64631111 909.63116769 1171 921 C1171.8962207 921.31565918 1172.79244141 921.63131836 1173.71582031 921.95654297 C1206.81105593 933.43993984 1242.07738837 939.72362368 1277 942 C1277.81275391 942.05639648 1278.62550781 942.11279297 1279.46289062 942.17089844 C1360.29568033 947.59613333 1444.11857569 937.71608277 1517 901 C1517 900.34 1517 899.68 1517 899 C1517.72574219 898.72929688 1518.45148437 898.45859375 1519.19921875 898.1796875 C1533.84199711 892.01215742 1547.32870413 879.95127495 1558.7421875 869.08203125 C1561 867 1561 867 1563 866 C1563 865.34 1563 864.68 1563 864 C1563.66 864 1564.32 864 1565 864 C1565 863.34 1565 862.68 1565 862 C1565.66 862 1566.32 862 1567 862 C1567 861.34 1567 860.68 1567 860 C1567.99 859.67 1568.98 859.34 1570 859 C1572.58023898 856.57069422 1574.75066676 853.73331675 1577 851 C1577.44585449 850.45972168 1577.89170898 849.91944336 1578.35107422 849.36279297 C1590.84171207 836.21545419 1590.84171207 836.21545419 1598 821 C1598.66 821 1599.32 821 1600 821 C1600 820.01 1600 819.02 1600 818 C1600.66 818 1601.32 818 1602 818 C1607.22438628 808.77279584 1612.36144099 799.505421 1617.1875 790.0625 C1617.58573975 789.30018066 1617.98397949 788.53786133 1618.39428711 787.75244141 C1619.34181336 785.87272311 1620.18096435 783.93915638 1621 782 C1620.67 781.01 1620.34 780.02 1620 779 C1598.36439162 778.74290479 1576.72903548 778.54899795 1555.09220886 778.43006611 C1545.04549056 778.37337277 1534.99972194 778.29609928 1524.95361328 778.17016602 C1516.19613953 778.06043891 1507.43935355 777.98953983 1498.68121147 777.96502656 C1494.04446125 777.95069878 1489.40967835 777.91709632 1484.77355957 777.83696938 C1480.40627746 777.7621028 1476.04176539 777.7393086 1471.67390251 777.75581551 C1470.07422746 777.75279772 1468.47445656 777.73102366 1466.8753376 777.68873978 C1457.942997 777.31427938 1457.942997 777.31427938 1450.34057617 781.39975548 C1448.31163334 784.18102041 1446.66007439 786.98935377 1445 790 C1442.92780758 792.5026455 1440.69332724 794.78789545 1438.375 797.0625 C1437.77727783 797.65119873 1437.17955566 798.23989746 1436.5637207 798.84643555 C1422.91192832 811.98340324 1406.17892153 821.69444809 1388 827 C1386.43602381 827.55838245 1384.87341844 828.12062601 1383.3125 828.6875 C1379.55239719 829.94996646 1375.94263331 830.47807003 1372 830.8203125 C1368.88275658 831.10037734 1365.88428671 831.79114333 1362.84375 832.50927734 C1359.31499099 833.1182064 1355.82099393 833.25062128 1352.25 833.3515625 C1351.14640137 833.38629166 1351.14640137 833.38629166 1350.02050781 833.42172241 C1348.4707673 833.46916554 1346.92095848 833.51442212 1345.37109375 833.55761719 C1343.00752335 833.6247862 1340.64446316 833.7026073 1338.28125 833.78125 C1336.77085241 833.82616703 1335.26043607 833.87045883 1333.75 833.9140625 C1332.6966748 833.94990952 1332.6966748 833.94990952 1331.62207031 833.98648071 C1327.92118291 834.08047311 1324.59783628 833.87167024 1321 833 C1319.58516595 832.83734572 1318.16832582 832.69119994 1316.75 832.5625 C1313.50999207 832.22769918 1310.41940336 831.68759213 1307.25 830.9375 C1304.09283122 830.19105905 1301.26452575 829.78938544 1298 830 C1297.67 829.34 1297.34 828.68 1297 828 C1295.02 828 1293.04 828 1291 828 C1290.67 827.34 1290.34 826.68 1290 826 C1288.15662837 825.37490285 1288.15662837 825.37490285 1285.875 824.875 C1268.90815493 820.07949286 1252.2127222 807.99831621 1240.375 795.25 C1239.06306307 793.77577574 1239.06306307 793.77577574 1237 794 C1236.75765625 793.45601562 1236.5153125 792.91203125 1236.265625 792.3515625 C1234.69993883 789.44247894 1232.77490343 786.9853347 1230.75 784.375 C1215.46996532 764.21426706 1208 741.2768853 1208 716 C1348.91 715.67 1489.82 715.34 1635 715 C1635.87529954 709.7487856 1635.87529954 709.7487856 1636.16113281 704.56884766 C1636.17532509 703.333032 1636.17532509 703.333032 1636.18980408 702.07225037 C1636.19419998 701.19504837 1636.19859589 700.31784637 1636.203125 699.4140625 C1636.21013931 698.48839981 1636.21715363 697.56273712 1636.22438049 696.60902405 C1636.24189899 693.61430004 1636.24823877 690.61977347 1636.25 687.625 C1636.25067474 686.60524078 1636.25134949 685.58548157 1636.25204468 684.53482056 C1636.23615361 669.45806137 1635.78268398 654.85558849 1633 640 C1632.83371094 639.05640625 1632.66742187 638.1128125 1632.49609375 637.140625 C1624.5271499 592.51453946 1606.31514599 553.30079055 1578 518 C1577.21625 517.02289062 1576.4325 516.04578125 1575.625 515.0390625 C1573.43729093 512.34138071 1571.22756367 509.66482617 1569 507 C1568.32453125 506.18789063 1567.6490625 505.37578125 1566.953125 504.5390625 C1566.32921875 503.80429687 1565.7053125 503.06953125 1565.0625 502.3125 C1564.24458984 501.34763672 1564.24458984 501.34763672 1563.41015625 500.36328125 C1562.08724769 498.76831453 1562.08724769 498.76831453 1560 499 C1559.67 498.01 1559.34 497.02 1559 496 C1558.34 496 1557.68 496 1557 496 C1557 495.34 1557 494.68 1557 494 C1555.55316948 492.49726114 1555.55316948 492.49726114 1553.625 490.9375 C1550.45515833 488.25062895 1547.36589155 485.50601528 1544.3125 482.6875 C1537.52680426 476.57199643 1530.35775602 470.39391906 1522.37890625 465.90234375 C1519.62286042 464.35067402 1517.15917725 462.74972592 1514.625 460.875 C1502.19601371 452.10159791 1488.85219632 445.21848999 1475.03271484 438.92822266 C1473.34481844 438.15745853 1471.66539054 437.368181 1469.98828125 436.57421875 C1457.69300921 430.79374629 1444.98128857 426.16414757 1432 422.1875 C1431.05737305 421.89762207 1430.11474609 421.60774414 1429.14355469 421.30908203 C1423.85420199 419.72600769 1418.59174949 418.42776069 1413.16088867 417.42919922 C1411.1875603 417.03725353 1409.24572594 416.4945312 1407.3125 415.9375 C1404.00101629 414.92067554 1404.00101629 414.92067554 1400.5 414.5 C1397 414 1397 414 1393.3125 412.875 C1390.21054308 412.05561515 1388.9085847 411.83656612 1386 413 C1385.67 412.34 1385.34 411.68 1385 411 C1383.02 411.33 1381.04 411.66 1379 412 C1378.67 411.34 1378.34 410.68 1378 410 C1375.66561635 409.59689412 1375.66561635 409.59689412 1372.75 409.5 C1368.62507798 409.24946244 1364.52357545 408.96868672 1360.4140625 408.53125 C1350.34430406 407.46099561 1340.30848208 406.74895931 1330.1875 406.375 C1329.11612793 406.33503906 1328.04475586 406.29507812 1326.94091797 406.25390625 C1312.46591458 405.77837762 1298.08049676 405.97175139 1283.625 406.75 Z M2880.04833984 411.57861328 C2877.3562091 411.9507595 2874.66722116 412.27245967 2871.96484375 412.55859375 C2868.83287659 412.90727581 2865.82784079 413.34774235 2862.75 414 C2861.96109375 414.165 2861.1721875 414.33 2860.359375 414.5 C2859.58078125 414.665 2858.8021875 414.83 2858 415 C2857.2469458 415.14518066 2856.4938916 415.29036133 2855.71801758 415.43994141 C2823.0268741 422.17608469 2784.5893502 434.38400282 2758 455 C2758 455.66 2758 456.32 2758 457 C2756.02 457.66 2754.04 458.32 2752 459 C2752 459.66 2752 460.32 2752 461 C2751.01 461 2750.02 461 2749 461 C2749 461.66 2749 462.32 2749 463 C2748.4328125 463.09539062 2747.865625 463.19078125 2747.28125 463.2890625 C2726.41772527 469.79105137 2706.56543248 500.8339731 2696.9765625 519.09570312 C2679.4662323 553.24084702 2674.31218817 592.05267378 2686 629 C2690.90543263 643.48074738 2697.94078936 656.42422898 2708 668 C2709.01320313 669.21236328 2709.01320313 669.21236328 2710.046875 670.44921875 C2721.24978802 683.47158297 2735.50665247 694.54395177 2751 702 C2752.74410156 702.88945313 2752.74410156 702.88945313 2754.5234375 703.796875 C2755.80726159 704.44797597 2757.09111624 705.09901669 2758.375 705.75 C2758.97699219 706.059375 2759.57898437 706.36875 2760.19921875 706.6875 C2772.90750911 713.10531397 2786.03593368 718.35355273 2799.5 722.9375 C2800.25044586 723.19390259 2801.00089172 723.45030518 2801.77407837 723.71447754 C2824.43848434 731.41365142 2847.56506377 736.63178437 2871 741.375 C2872.25228897 741.6295697 2872.25228897 741.6295697 2873.52987671 741.88928223 C2883.15098162 743.83155594 2892.73146139 745.47391366 2902.484375 746.59228516 C2906.80395878 747.09323689 2911.11765489 747.60371682 2915.375 748.5 C2918.51010161 749.09716221 2921.64129104 749.41059324 2924.81640625 749.71875 C2927 750 2927 750 2928.98046875 750.52734375 C2931.29716342 751.06954889 2933.37383536 751.0974436 2935.75 751.0625 C2936.94882813 751.04896484 2936.94882813 751.04896484 2938.171875 751.03515625 C2938.77515625 751.02355469 2939.3784375 751.01195312 2940 751 C2940.33 751.66 2940.66 752.32 2941 753 C2942.98 752.67 2944.96 752.34 2947 752 C2947.33 752.66 2947.66 753.32 2948 754 C2949.175625 753.9690625 2949.175625 753.9690625 2950.375 753.9375 C2953 754 2953 754 2955 755 C2956.66522169 755.19491144 2958.33128925 755.3843667 2960.00024414 755.54418945 C2980.85324047 757.56407638 3001.95825632 762.13574001 3021 771 C3021.66 771 3022.32 771 3023 771 C3023 771.66 3023 772.32 3023 773 C3024.17354576 773.88164859 3025.3910475 774.70509427 3026.625 775.5 C3033.82287221 780.80906887 3036.99964054 787.2637297 3038.5 796 C3039.33288792 803.9991944 3039.03331337 810.54214186 3034.3125 817.25 C3023.62752931 830.01545777 3008.84533069 834.05699107 2993 837 C2991.72253906 837.26039063 2990.44507812 837.52078125 2989.12890625 837.7890625 C2982.75641793 839.07284776 2976.58855906 840.31027981 2970.0546875 840.0390625 C2967.74187144 839.99509261 2965.5467651 840.22849742 2963.25 840.5 C2954.77951167 841.42501433 2946.41374448 841.34619912 2938 840 C2936.72125 840 2935.4425 840 2934.125 840 C2933.09375 840 2932.0625 840 2931 840 C2930.67 839.67 2930.34 839.34 2930 839 C2928.48874287 838.68063084 2926.96651924 838.41276487 2925.44140625 838.16796875 C2924.49716797 838.00876953 2923.55292969 837.84957031 2922.58007812 837.68554688 C2920.60445781 837.35947362 2918.62791262 837.03894386 2916.65039062 836.72460938 C2910.00553066 835.59099537 2904.14902496 833.74734885 2898 831 C2896.96230469 830.55398438 2895.92460937 830.10796875 2894.85546875 829.6484375 C2888.32167039 826.52981632 2882.77802393 822.80323312 2877.18823242 818.25146484 C2874.44854554 815.76943602 2874.44854554 815.76943602 2871 815 C2870.731875 814.360625 2870.46375 813.72125 2870.1875 813.0625 C2869.11332248 810.66868314 2869.11332248 810.66868314 2866 810 C2865.28935808 808.6895763 2864.62895446 807.35153191 2864 806 C2862.90066668 804.58386373 2861.77343446 803.18911686 2860.625 801.8125 C2855.27440974 795.02692815 2853.03922665 788.27290894 2851 780 C2830.15586397 779.97667288 2809.31173008 779.95902174 2788.46758366 779.94818783 C2778.78998949 779.94302447 2769.11240342 779.93598103 2759.43481445 779.92456055 C2751.00299669 779.91461491 2742.57118479 779.90814686 2734.13936132 779.90591151 C2729.67192608 779.90460419 2725.2045076 779.90151705 2720.73707771 779.89426994 C2716.5371584 779.88751162 2712.33726287 779.88538265 2708.13733864 779.88689232 C2706.59131491 779.88661591 2705.04529044 779.88460967 2703.49927139 779.88079453 C2701.39764224 779.8758602 2699.29610428 779.87700072 2697.19447327 779.87974548 C2696.01550004 779.87882369 2694.83652681 779.8779019 2693.62182713 779.87695217 C2691.07388228 779.70172445 2691.07388228 779.70172445 2690 781 C2689.69176652 786.90890141 2690.40728419 791.9930108 2691.9375 797.6875 C2692.25497192 798.89079956 2692.25497192 798.89079956 2692.57885742 800.1184082 C2695.3814958 810.13333635 2699.66858239 819.56829921 2704 829 C2704.66 829 2705.32 829 2706 829 C2706.23847656 829.84433594 2706.47695312 830.68867187 2706.72265625 831.55859375 C2708.16012945 835.4314191 2710.13021231 838.66914222 2712.4375 842.0625 C2713.10338135 843.04585327 2713.10338135 843.04585327 2713.78271484 844.04907227 C2726.03510052 861.82641208 2745.85776386 887.18522097 2767 894 C2767 894.66 2767 895.32 2767 896 C2769.5749014 897.70553258 2772.13746956 899.27825835 2774.8125 900.8125 C2775.59206055 901.26391357 2776.37162109 901.71532715 2777.17480469 902.18041992 C2786.06965343 907.27094517 2795.19724446 911.15261416 2804.78125 914.7578125 C2807.70812805 915.8873601 2810.56620901 917.11262207 2813.4375 918.375 C2852.65840219 934.62004465 2897.30868604 941.0556343 2939.5390625 941.203125 C2940.90110301 941.21010525 2942.2631432 941.2171462 2943.62518311 941.22424316 C2947.95845948 941.2435327 2952.29168536 941.24841968 2956.625 941.25 C2957.3627491 941.25058914 2958.1004982 941.25117828 2958.86060333 941.25178528 C2981.70099632 941.26466373 3004.3081177 940.83346132 3027 938 C3028.21429687 937.85546387 3029.42859375 937.71092773 3030.6796875 937.56201172 C3094.50058003 929.81600823 3159.51047199 911.2624329 3207 866 C3207.84175781 865.22269531 3208.68351562 864.44539063 3209.55078125 863.64453125 C3234.41555397 839.96946057 3251.03843805 804.77227649 3252.1875 770.4296875 C3252.75577116 741.68046662 3246.44728141 713.36628023 3229 690 C3228.39800781 689.17628906 3227.79601563 688.35257813 3227.17578125 687.50390625 C3206.5191388 660.43807495 3176.21707674 644.10647404 3145 632 C3144.06027344 631.63261719 3143.12054687 631.26523437 3142.15234375 630.88671875 C3137.18210388 629.00664177 3132.33945942 627.54506175 3127.1328125 626.5 C3123.62063692 625.67663283 3120.35819465 624.30912673 3117 623 C3114.89282955 622.40967952 3113.19009307 622 3111 622 C3109.51661249 621.6683326 3108.03962769 621.30784011 3106.56640625 620.93359375 C3068.25492274 611.36559018 3029.44632591 605.44943945 2990.4475708 599.45385742 C2908.59384478 586.86778833 2908.59384478 586.86778833 2890.1875 573.8125 C2887.35449974 571.60920937 2887.35449974 571.60920937 2884 571 C2883.72285156 570.4225 2883.44570312 569.845 2883.16015625 569.25 C2881.67269523 566.36522711 2879.90406655 563.70884888 2878.12109375 561 C2874.79993136 555.07513886 2875.19835204 547.56395298 2876.6484375 541.1171875 C2880.3554742 529.74260479 2887.66915368 523.36195274 2898.14941406 517.87988281 C2932.45607762 501.56837681 2983.57139899 501.99843264 3018.85400391 514.21386719 C3038.75617298 521.50453663 3056.49783175 531.11401902 3066 551 C3067.98 557.93 3067.98 557.93 3070 565 C3124.12 565 3178.24 565 3234 565 C3234 559.34237942 3233.53872646 555.48927754 3231.8125 550.3125 C3231.58473877 549.61334473 3231.35697754 548.91418945 3231.12231445 548.19384766 C3226.01967555 532.8102972 3218.71242099 518.97579444 3209 506 C3208.43055664 505.2275293 3208.43055664 505.2275293 3207.84960938 504.43945312 C3202.49285302 497.209941 3196.7853139 490.50798411 3190.4375 484.125 C3189.82962646 483.51172852 3189.22175293 482.89845703 3188.59545898 482.26660156 C3185.80800599 479.08600101 3185.80800599 479.08600101 3182 478 C3182 477.34 3182 476.68 3182 476 C3179.91227367 474.18602453 3177.81934679 472.48900684 3175.625 470.8125 C3174.99102295 470.32289795 3174.3570459 469.8332959 3173.70385742 469.32885742 C3165.12836027 461.62700751 3165.12836027 461.62700751 3155 458 C3155 457.34 3155 456.68 3155 456 C3126.06509148 438.88981523 3095.97449562 425.17958379 3063 418 C3061.43748577 417.64589614 3059.87498421 417.29173632 3058.3125 416.9375 C3045.28374114 413.8842747 3045.28374114 413.8842747 3032 413 C3031.67 412.34 3031.34 411.68 3031 411 C3029.02 411.33 3027.04 411.66 3025 412 C3024.67 411.34 3024.34 410.68 3024 410 C3023.21625 410.020625 3022.4325 410.04125 3021.625 410.0625 C3019 410 3019 410 3017 409 C3014.20449407 408.78813008 3011.42458775 408.62371337 3008.625 408.5 C3003.6197261 408.26739691 2998.6381208 407.97637533 2993.6484375 407.51171875 C2955.68587557 404.27637583 2917.68838543 406.16850896 2880.04833984 411.57861328 Z M2309 418 C2309 585.97 2309 753.94 2309 927 C2378.3 927 2447.6 927 2519 927 C2519 759.03 2519 591.06 2519 418 C2449.7 418 2380.4 418 2309 418 Z M494 419 C494 586.64 494 754.28 494 927 C654.38 927 814.76 927 980 927 C980 882.12 980 837.24 980 791 C891.56 791 803.12 791 712 791 C712 668.57 712 546.14 712 420 C706.5203085 419.01299954 706.5203085 419.01299954 702 420 C700.35 419.67 698.7 419.34 697 419 C630.01 419 563.02 419 494 419 Z M1574 419 C1575.26026607 423.06462847 1576.76541093 426.69534974 1578.80078125 430.4296875 C1579.35910645 431.4599707 1579.91743164 432.49025391 1580.49267578 433.55175781 C1581.09321777 434.64842773 1581.69375977 435.74509766 1582.3125 436.875 C1583.26353796 438.62573534 1584.21457334 440.37647209 1585.16540527 442.12731934 C1586.14035297 443.92074769 1587.11750279 445.7129602 1588.09521484 447.50488281 C1590.41322178 451.75822648 1592.71675488 456.01929158 1595.01977539 460.28076172 C1599.13304273 467.8892115 1603.26375637 475.48795639 1607.41333008 483.07666016 C1612.79273216 492.91538619 1618.11160836 502.78541655 1623.39932251 512.67364502 C1628.28977557 521.8186168 1633.21041109 530.9467206 1638.15600586 540.06201172 C1642.11844225 547.36694028 1646.06288583 554.68139528 1650 562 C1656.64289999 574.3462517 1663.31705182 586.67539076 1670 599 C1679.62277587 616.74620261 1689.20634019 634.51316406 1698.77050781 652.29101562 C1708.60851114 670.57633822 1718.45180407 688.85886602 1728.41357422 707.07714844 C1733.81719185 716.96000942 1739.15899841 726.87478847 1744.46670532 736.80941772 C1748.62124735 744.58503202 1752.81678574 752.33627083 1757.0625 760.0625 C1761.59034975 768.30779114 1765.94323907 776.63775242 1770.25 785 C1774.33473444 792.9267679 1778.47479775 800.77009826 1782.96875 808.47265625 C1791.52285846 823.19559293 1799.3657064 838.35897855 1807.42578125 853.35546875 C1809.79185071 857.75735323 1812.16442223 862.15562666 1814.54296875 866.55078125 C1820.88798128 878.28580374 1827.17019373 890.04445206 1833.21118164 901.93969727 C1834.17316379 903.81365715 1835.15971777 905.67523659 1836.17214394 907.52243137 C1837.52205113 910.09068332 1838.71613829 912.60912993 1839.8787899 915.25781918 C1843.47628483 923.28724438 1843.47628483 923.28724438 1849.85430956 928.97162366 C1855.14646391 930.48975269 1860.58055227 930.13241893 1866.02587891 929.92993164 C1867.84013413 929.92512999 1869.65442234 929.92784065 1871.46865845 929.93745422 C1876.37166505 929.94231425 1881.2675387 929.84271967 1886.16889238 929.72369695 C1891.29877608 929.61709408 1896.42884147 929.60741385 1901.55966187 929.58726501 C1911.26487436 929.53451858 1920.96681395 929.39515641 1930.6705879 929.22432369 C1941.72214072 929.03400643 1952.77385372 928.94076511 1963.82663846 928.85550129 C1986.55290384 928.67801927 2009.27626822 928.37919671 2032 928 C2033.25967692 925.48660857 2034.51869199 922.97288913 2035.77734375 920.45898438 C2036.1290564 919.75739197 2036.48076904 919.05579956 2036.84313965 918.33294678 C2040.30147938 911.42324379 2043.657839 904.46665066 2047 897.5 C2051.51637999 888.08571934 2056.1125336 878.7182656 2060.80023193 869.38824463 C2064.76639075 861.49325413 2068.72325104 853.59359092 2072.68041992 845.6940918 C2073.76237516 843.53519862 2074.84504933 841.3766656 2075.9284668 839.21850586 C2082.13591771 826.85165078 2088.25662744 814.45229351 2094.19941711 801.95591736 C2097.86639176 794.25133305 2101.65166794 786.61552298 2105.5 779 C2109.90337523 770.250639 2114.24637688 761.47858835 2118.4375 752.625 C2123.16242588 742.64538383 2128.0930035 732.7758383 2133.04998779 722.91027832 C2137.75514671 713.54172307 2142.36186343 704.13622315 2146.84765625 694.66015625 C2150.93402423 686.06175696 2155.20368337 677.55810071 2159.47879028 669.05267334 C2164.02147296 660.01055131 2168.45796174 650.92541212 2172.78808594 641.77929688 C2177.25347968 632.38645829 2181.92210512 623.09704829 2186.61132812 613.81445312 C2189.60564714 607.87450322 2192.52455419 601.9158221 2195.3125 595.875 C2199.30320423 587.2304681 2203.59180014 578.73831436 2207.87319946 570.23501587 C2217.00658752 552.10386332 2217.00658752 552.10386332 2225.8125 533.8125 C2229.98279054 524.94268999 2234.46881733 516.25115145 2239 507.5625 C2244.23709052 497.51962664 2249.2108124 487.42295698 2253.84106445 477.08203125 C2257.57349686 468.796101 2261.59846722 460.67625359 2265.6875 452.5625 C2271.9146679 440.20655617 2271.9146679 440.20655617 2277.9375 427.75 C2278.26129639 427.07138916 2278.58509277 426.39277832 2278.91870117 425.69360352 C2280.49743481 422.4845545 2280.49743481 422.4845545 2281 419 C2280.35520187 419 2279.71040375 419 2279.04606628 419 C2231.03071086 419 2183.01535543 419 2135 419 C2134.5153125 419.969375 2134.030625 420.93875 2133.53125 421.9375 C2133.21153732 422.57689514 2132.89182465 423.21629028 2132.56242371 423.87506104 C2131.84383072 425.31230894 2131.12533778 426.74960687 2130.40693665 428.18695068 C2128.59282371 431.81621048 2126.7774758 435.44483307 2124.95776367 439.07128906 C2120.34590393 448.26703422 2115.79985107 457.49286652 2111.3125 466.75 C2110.97061646 467.45488556 2110.62873291 468.15977112 2110.27648926 468.88601685 C2102.30514141 485.33492121 2094.6006351 501.90265873 2087.01953125 518.53515625 C2081.34511074 530.95632132 2075.43441826 543.22023989 2069.27709961 555.40942383 C2064.66812083 564.56988762 2060.31562146 573.8302018 2056.03540039 583.14794922 C2051.80850041 592.32479667 2047.42981519 601.41979191 2043 610.5 C2038.08396364 620.57983129 2033.25038277 630.68651107 2028.5625 640.875 C2023.67906704 651.48636936 2018.62613072 662.00433443 2013.5 672.5 C2006.63315672 686.56127136 1999.97796164 700.70419437 1993.42822266 714.91601562 C1990.00716225 722.30316692 1986.50245614 729.6511773 1983 737 C1981.21178226 734.31767339 1979.79857396 731.69711039 1978.375 728.8125 C1977.92898438 727.91144531 1977.48296875 727.01039063 1977.0234375 726.08203125 C1976.68570312 725.39496094 1976.34796875 724.70789062 1976 724 C1975.34 724 1974.68 724 1974 724 C1973.90847656 723.14019531 1973.81695313 722.28039063 1973.72265625 721.39453125 C1972.90316308 717.5451282 1971.48873156 715.03931674 1969.4375 711.6875 C1966.35557652 706.51650142 1963.62950073 701.28581543 1961.125 695.8125 C1958.38724409 689.85172279 1955.47736028 684.02917557 1952.375 678.25 C1947.95905035 670.01235438 1943.89876486 661.62075854 1939.875 653.1875 C1935.79451495 644.6403731 1931.63068366 636.24600165 1926.7890625 628.09765625 C1923.20930223 621.89951238 1920.15218218 615.42292688 1917 609 C1915.79660219 606.56002962 1914.58773908 604.12284041 1913.375 601.6875 C1912.89885254 600.73049194 1912.89885254 600.73049194 1912.41308594 599.75415039 C1909.68883509 594.3101676 1906.87458167 588.91498048 1904.05566406 583.51953125 C1898.18649781 572.28272837 1892.54472701 560.97537844 1887.12475586 549.51538086 C1883.99557075 542.94435576 1880.62003658 536.6759139 1876.91015625 530.4140625 C1874.64374688 526.3632613 1872.69493089 522.21201509 1870.75 518 C1867.63995306 511.28424655 1864.29469735 504.77394807 1860.6875 498.3125 C1850.76696503 480.48136489 1841.9439114 462.05014041 1832.89477539 443.76696777 C1831.85365667 441.66399328 1830.80987077 439.56236059 1829.765625 437.4609375 C1829.18071289 436.28063965 1828.59580078 435.1003418 1827.99316406 433.88427734 C1826.35433338 430.6378682 1824.62044633 427.44770509 1822.87542725 424.25723267 C1822.33653744 423.2713447 1821.79764763 422.28545673 1821.24242783 421.26969337 C1820.83242664 420.52069456 1820.42242546 419.77169575 1820 419 C1818.85863681 419 1817.71727362 419 1816.54132366 419 C1735.69421577 419 1654.84710789 419 1574 419 Z " fill="#000000" transform="translate(65,315)"/>
<path d="M0 0 C27.72 0 55.44 0 84 0 C84 85.8 84 171.6 84 260 C105.78 259.505 105.78 259.505 128 259 C127.99476318 255.22385254 127.98952637 251.44770508 127.98413086 247.55712891 C127.96759229 235.10798715 127.95647685 222.65884558 127.94818783 210.20969582 C127.94302673 202.65867173 127.93598756 195.10765804 127.92456055 187.55664062 C127.91460804 180.97685914 127.90814521 174.39708519 127.90591151 167.81729639 C127.90460537 164.33183828 127.90152559 160.84640169 127.89426994 157.36095047 C127.88624484 153.47451619 127.88600923 149.58810317 127.88647461 145.70166016 C127.88287933 144.54000839 127.87928406 143.37835663 127.87557983 142.1815033 C127.8769545 141.12698471 127.87832916 140.07246613 127.87974548 138.98599243 C127.87836279 137.60606833 127.87836279 137.60606833 127.87695217 136.19826698 C128 134 128 134 129 132 C173.16078269 127.9461415 173.16078269 127.9461415 181.79296875 134.32324219 C187.76964009 139.98323202 191.05905965 148.13029727 193 156 C193 156.66 193 157.32 193 158 C193.66 158 194.32 158 195 158 C196.41357422 159.90161133 196.41357422 159.90161133 198.0546875 162.58203125 C198.96782715 164.06002197 198.96782715 164.06002197 199.89941406 165.56787109 C200.55135742 166.63859863 201.20330078 167.70932617 201.875 168.8125 C203.24172384 171.03023372 204.60891679 173.24767841 205.9765625 175.46484375 C206.65750977 176.57327637 207.33845703 177.68170898 208.04003906 178.82373047 C210.73931691 183.1981207 213.49192997 187.53754589 216.25 191.875 C220.44908376 198.50162482 224.56729432 205.17309462 228.64331055 211.87597656 C237.18098847 225.90229185 237.18098847 225.90229185 246.04003906 239.72558594 C247.55581281 242.25791746 248.7012108 244.55879259 249.84277344 247.25097656 C251.91816452 251.77890342 253.97042844 255.92612828 258 259 C265.65739525 261.70164113 274.1463005 260.82563704 282.125 260.5 C284.34365609 260.46792539 286.56242979 260.44311578 288.78125 260.42578125 C294.19169841 260.36777917 299.59382003 260.21946421 305 260 C304.66299576 259.46698273 304.32599152 258.93396545 303.97877502 258.38479614 C302.42438136 255.92597263 300.87039174 253.466894 299.31640625 251.0078125 C298.52151794 249.75061401 298.52151794 249.75061401 297.71057129 248.46801758 C294.43383737 243.28205511 291.17655505 238.08456309 287.9375 232.875 C280.63977431 221.17572502 273.1667493 209.59163676 265.36328125 198.22265625 C264 196 264 196 264 194 C263.34 194 262.68 194 262 194 C260.86181641 192.54150391 260.86181641 192.54150391 259.6015625 190.4765625 C259.1279126 189.71134277 258.6542627 188.94612305 258.16625977 188.15771484 C257.40333618 186.904021 257.40333618 186.904021 256.625 185.625 C251.93847882 178.04780105 247.11998929 170.58845963 242.09814453 163.22900391 C239.23635143 158.99641092 236.69347379 154.68707485 234.25219727 150.20019531 C231.88146378 146.03465618 229.0793749 142.15191918 226.31054688 138.24414062 C223.93575404 134.79087044 223 133.30783949 223 129 C224.26972656 128.76925781 225.53945312 128.53851563 226.84765625 128.30078125 C245.8480185 124.74504949 263.06704094 119.8978965 278 107 C279.03447266 106.10861328 279.03447266 106.10861328 280.08984375 105.19921875 C292.11256683 94.05339294 298.2705076 77.04533654 299.17700195 60.8347168 C299.48145566 44.01455906 299.51879012 28.65748909 293.36328125 12.7421875 C292 9 292 9 292 6 C291.34 5.67 290.68 5.34 290 5 C290 3.35 290 1.7 290 0 C314.09 0 338.18 0 363 0 C381.73213965 40.34614694 390.14236631 73.50595676 390.1875 117.125 C390.18867828 118.02169403 390.18985657 118.91838806 390.19107056 119.84225464 C390.19068683 122.41836093 390.18143702 124.99424419 390.16796875 127.5703125 C390.16675018 128.34646408 390.16553162 129.12261566 390.16427612 129.92228699 C390.13127923 133.74603403 389.87024597 137.27748862 389 141 C388.81308956 142.80409206 388.6274315 144.60835927 388.45678711 146.4140625 C384.44592714 186.87307972 366.4051032 227.24463075 340 258 C339.08998688 259.1032117 338.18123451 260.20746402 337.2734375 261.3125 C304.04694173 301.39820174 252.67558499 326.87165716 201.14282227 332.30102539 C192.43561777 333.08260432 183.79036701 333.08457999 175.0625 332.8125 C174.3404538 332.79044495 173.61840759 332.76838989 172.8744812 332.7456665 C160.2916318 332.32953559 148.24722274 330.97858682 136 328 C134.97358398 327.75475586 133.94716797 327.50951172 132.88964844 327.25683594 C99.27169382 319.08058019 69.26599393 306.05535096 42.81982422 283.54492188 C41.54997531 282.46689613 40.26942465 281.40140525 38.98095703 280.34570312 C38.33884277 279.81396484 37.69672852 279.28222656 37.03515625 278.734375 C36.45258057 278.25709961 35.87000488 277.77982422 35.26977539 277.28808594 C34 276 34 276 34 274 C33.34 274 32.68 274 32 274 C30.25923449 271.88579325 28.61674485 269.76820191 27 267.5625 C24.05954998 263.16527192 24.05954998 263.16527192 20 260 C19.5875 259.29875 19.175 258.5975 18.75 257.875 C17.04086672 254.86000974 17.04086672 254.86000974 14.375 252.125 C0.42885166 236.04914427 -7.72127387 214.0936282 -14.26513672 194.171875 C-14.98761938 192.03659069 -15.76440536 189.93078768 -16.56640625 187.82421875 C-25.39410614 164.55538108 -27.20260397 138.97224967 -27.13037109 114.29638672 C-27.12502156 112.13371724 -27.13035077 109.97125692 -27.13671875 107.80859375 C-27.15677624 71.96839577 -20.25574663 37.34281587 -2.56640625 5.87109375 C-0.91995429 3.05445933 -0.91995429 3.05445933 0 0 Z " fill="#000000" transform="translate(3132,315)"/>
<path d="M0 0 C21.72493755 19.41769002 30.38981548 44.24919547 32.87988281 72.81274414 C33.02986581 75.54383695 33.00717026 78.26525852 33 81 C5.89744054 81.02332556 -21.20511743 81.04097749 -48.3076849 81.05181217 C-60.89091769 81.05697586 -73.47414425 81.06401994 -86.05737305 81.07543945 C-97.02060101 81.08538407 -107.98382448 81.0918529 -118.94705683 81.09408849 C-124.75588289 81.09539598 -130.56469605 81.09848421 -136.37351799 81.10573006 C-141.83414752 81.11248678 -147.29475876 81.11461768 -152.75539207 81.11310768 C-154.765832 81.11338417 -156.7762725 81.11539134 -158.78670883 81.11920547 C-161.51891585 81.12413729 -164.25105267 81.12300019 -166.98326111 81.12025452 C-167.78966551 81.12316736 -168.59606992 81.1260802 -169.42691082 81.12908131 C-174.88587879 81.11412121 -174.88587879 81.11412121 -176 80 C-176.54807433 51.34354224 -164.74425219 23.98916056 -145.28515625 3.26171875 C-132.32550383 -9.56501416 -116.72264809 -18.06113013 -99 -22 C-97.96101563 -22.24363281 -96.92203125 -22.48726562 -95.8515625 -22.73828125 C-63.60654164 -28.9587774 -25.29960751 -21.56092807 0 0 Z " fill="#000000" transform="translate(1448,849)"/>
<path d="M0 0 C13.24125 -0.061875 26.4825 -0.12375 40.125 -0.1875 C44.27852051 -0.21481201 48.43204102 -0.24212402 52.71142578 -0.27026367 C57.85327148 -0.28381348 57.85327148 -0.28381348 60.27389526 -0.28633118 C61.93497136 -0.29088451 63.59603866 -0.30132222 65.25704956 -0.31672668 C83.80646556 -0.47989011 103.27879199 1.39510364 117.234375 15.06640625 C126.56204647 25.28144469 127.77751832 38.47541256 127.17919922 51.80810547 C126.14874377 64.41223216 121.75793895 75.63605233 112 84 C84.13117599 104.16488611 31.52779558 97.24567113 0 97 C0 64.99 0 32.98 0 0 Z " fill="#000000" transform="translate(3259,317)"/>
</svg>
